<svg xmlns="http://www.w3.org/2000/svg" style="isolation:isolate" viewBox="-70 -109.695 1170 893.561" width="1560" height="1191.415"><defs><clipPath id="a"><path d="M-70-109.695h1170v893.561H-70z"/></clipPath></defs><g clip-path="url(#a)"><path d="M439.549 429.566a8.023 8.023 0 00-10.935 2.65 8.024 8.024 0 002.651 10.935 7.847 7.847 0 004.109 1.127c2.717 0 5.302-1.392 6.826-3.844 2.319-3.711 1.126-8.615-2.651-10.868zm29.491 17.827c-3.777-2.253-8.615-1.06-10.935 2.717a8.024 8.024 0 002.651 10.935 7.86 7.86 0 004.109 1.127c2.717 0 5.302-1.392 6.826-3.844 2.253-3.778 1.061-8.682-2.651-10.935zm30.883 19.02a8.028 8.028 0 00-5.633-2.319 8.028 8.028 0 00-5.633 2.319 8.03 8.03 0 00-2.32 5.633c0 2.121.862 4.176 2.32 5.634a8.028 8.028 0 005.633 2.319c2.055 0 4.175-.861 5.633-2.319a8.031 8.031 0 002.32-5.634 7.502 7.502 0 00-2.32-5.633zm-258.927-39.697c-3.844 2.121-5.169 7.025-3.048 10.802 1.458 2.585 4.175 4.043 6.958 4.043 1.326 0 2.651-.331 3.91-.994 3.844-2.187 5.17-7.025 3.049-10.803-2.187-3.843-7.025-5.169-10.869-3.048zm-29.756 16.701c-3.844 2.12-5.17 7.024-3.049 10.802 1.458 2.585 4.175 4.043 6.959 4.043 1.325 0 2.651-.332 3.91-.994 3.844-2.187 5.169-7.025 3.048-10.803-2.253-3.844-7.091-5.169-10.868-3.048zm-25.979 15.706a8.029 8.029 0 00-5.633 2.32 8.029 8.029 0 00-2.32 5.633c0 2.121.862 4.175 2.32 5.633a8.029 8.029 0 005.633 2.32 8.03 8.03 0 005.633-2.32 8.028 8.028 0 002.319-5.633 8.028 8.028 0 00-2.319-5.633 8.03 8.03 0 00-5.633-2.32zm156.072-175.49c4.374 0 7.953-3.579 7.953-7.953 0-4.374-3.579-7.952-7.953-7.952-4.374 0-7.953 3.578-7.953 7.952a7.934 7.934 0 007.953 7.953zm0-27.503c4.374 0 7.953-3.579 7.953-7.953 0-4.374-3.579-7.952-7.953-7.952-4.374 0-7.953 3.578-7.953 7.952a7.934 7.934 0 007.953 7.953zm0-27.569c4.374 0 7.953-3.579 7.953-7.953 0-4.374-3.579-7.953-7.953-7.953-4.374 0-7.953 3.579-7.953 7.953a7.934 7.934 0 007.953 7.953zm0-27.504a8.028 8.028 0 005.633-2.319 8.03 8.03 0 002.32-5.633 8.029 8.029 0 00-2.32-5.633 8.029 8.029 0 00-5.633-2.32 8.029 8.029 0 00-5.633 2.32 8.029 8.029 0 00-2.32 5.633 8.03 8.03 0 002.32 5.633c1.524 1.458 3.512 2.319 5.633 2.319z" fill="#FFC754"/><linearGradient id="b" x1=".061" y1=".735" x2=".968" y2=".288" gradientTransform="matrix(149.116 0 0 168.573 615.183 295.256)" gradientUnits="userSpaceOnUse"><stop offset="2.174%" stop-color="#c0004f"/><stop offset="98.696%" stop-color="#f3665b"/></linearGradient><path d="M760.322 335.326l-65.676-38.968a7.935 7.935 0 00-7.953-.067l-66.538 37.312c-2.452 1.391-4.042 3.976-4.042 6.826l-.928 76.346c-.066 2.85 1.458 5.501 3.91 6.959l65.676 38.968c1.259.729 2.651 1.127 4.043 1.127 1.325 0 2.651-.332 3.91-.995l66.604-37.377c2.452-1.392 4.042-3.977 4.042-6.826l.928-76.347c0-2.849-1.524-5.5-3.976-6.958zm-79.328 106.699l-49.837-29.558.729-57.856 49.837 29.492-.729 57.922zm8.814-71.641l-49.97-29.558 50.633-28.43 49.969 29.623-50.632 28.365zm57.657 43.475l-50.566 28.365.729-57.989 50.566-28.298-.729 57.922z" fill="url(#b)"/><path d="M788.885 429.566a8.024 8.024 0 00-10.935 2.65 8.024 8.024 0 002.651 10.935 7.852 7.852 0 004.109 1.127c2.717 0 5.302-1.392 6.826-3.844 2.32-3.711 1.127-8.615-2.651-10.868zm29.492 17.827c-3.778-2.253-8.616-1.06-10.935 2.717a8.024 8.024 0 002.651 10.935 7.857 7.857 0 004.109 1.127c2.717 0 5.301-1.392 6.826-3.844 2.253-3.778 1.06-8.682-2.651-10.935zm30.883 19.02a8.03 8.03 0 00-5.633-2.319 8.03 8.03 0 00-5.634 2.319 8.03 8.03 0 00-2.319 5.633 8.03 8.03 0 002.319 5.634 8.03 8.03 0 005.634 2.319c2.054 0 4.175-.861 5.633-2.319a8.03 8.03 0 002.319-5.634 7.501 7.501 0 00-2.319-5.633zm-258.927-39.697c-3.844 2.121-5.17 7.025-3.049 10.802 1.458 2.585 4.175 4.043 6.959 4.043 1.325 0 2.651-.331 3.91-.994 3.844-2.187 5.169-7.025 3.048-10.803-2.187-3.843-7.025-5.169-10.868-3.048zm-29.757 16.701c-3.844 2.12-5.169 7.024-3.048 10.802 1.458 2.585 4.175 4.043 6.958 4.043 1.326 0 2.651-.332 3.91-.994 3.844-2.187 5.17-7.025 3.049-10.803-2.253-3.844-7.091-5.169-10.869-3.048zm-25.979 15.706a8.03 8.03 0 00-5.633 2.32 8.028 8.028 0 00-2.319 5.633c0 2.121.861 4.175 2.319 5.633a8.03 8.03 0 005.633 2.32 8.029 8.029 0 005.633-2.32 8.029 8.029 0 002.32-5.633 8.029 8.029 0 00-2.32-5.633 8.029 8.029 0 00-5.633-2.32zm156.072-175.49c4.374 0 7.953-3.579 7.953-7.953 0-4.374-3.579-7.952-7.953-7.952-4.374 0-7.952 3.578-7.952 7.952a7.933 7.933 0 007.952 7.953zm0-27.503c4.374 0 7.953-3.579 7.953-7.953 0-4.374-3.579-7.952-7.953-7.952-4.374 0-7.952 3.578-7.952 7.952a7.933 7.933 0 007.952 7.953zm0-27.569c4.374 0 7.953-3.579 7.953-7.953 0-4.374-3.579-7.953-7.953-7.953-4.374 0-7.952 3.579-7.952 7.953a7.933 7.933 0 007.952 7.953zm0-27.504a8.03 8.03 0 005.634-2.319 8.03 8.03 0 002.319-5.633 8.028 8.028 0 00-2.319-5.633 8.031 8.031 0 00-5.634-2.32 8.03 8.03 0 00-5.633 2.32 8.028 8.028 0 00-2.319 5.633 8.03 8.03 0 002.319 5.633c1.524 1.458 3.513 2.319 5.633 2.319z" fill="#C0004F"/><path d="M615.881 134.719a8.023 8.023 0 00-10.935 2.65 8.023 8.023 0 002.651 10.935 7.847 7.847 0 004.109 1.127c2.717 0 5.301-1.392 6.826-3.844 2.319-3.711 1.126-8.615-2.651-10.868zm29.491 17.827c-3.777-2.253-8.615-1.06-10.935 2.717a8.025 8.025 0 002.651 10.935 7.857 7.857 0 004.109 1.127c2.717 0 5.302-1.392 6.826-3.844 2.253-3.778 1.06-8.682-2.651-10.935zm30.883 19.02a8.028 8.028 0 00-5.633-2.319 8.028 8.028 0 00-5.633 2.319 8.03 8.03 0 00-2.32 5.633c0 2.121.862 4.175 2.32 5.633a8.029 8.029 0 005.633 2.32c2.054 0 4.175-.862 5.633-2.32a8.029 8.029 0 002.32-5.633 7.506 7.506 0 00-2.32-5.633zm-258.927-39.697c-3.844 2.121-5.169 7.025-3.049 10.802 1.458 2.585 4.175 4.043 6.959 4.043 1.325 0 2.651-.331 3.91-.994 3.844-2.187 5.169-7.025 3.049-10.803-2.187-3.843-7.025-5.169-10.869-3.048zm-29.757 16.701c-3.843 2.12-5.169 7.024-3.048 10.802 1.458 2.585 4.175 4.043 6.959 4.043 1.325 0 2.65-.332 3.91-.995 3.843-2.187 5.169-7.024 3.048-10.802-2.253-3.844-7.091-5.169-10.869-3.048zm-25.978 15.706a8.031 8.031 0 00-5.634 2.32 8.028 8.028 0 00-2.319 5.633c0 2.121.861 4.175 2.319 5.633a8.031 8.031 0 005.634 2.32 8.03 8.03 0 005.633-2.32 8.028 8.028 0 002.319-5.633 8.028 8.028 0 00-2.319-5.633 8.03 8.03 0 00-5.633-2.32zm156.072-175.49c4.374 0 7.952-3.579 7.952-7.953 0-4.374-3.578-7.952-7.952-7.952-4.374 0-7.953 3.578-7.953 7.952a7.934 7.934 0 007.953 7.953zm0-27.503c4.374 0 7.952-3.579 7.952-7.953 0-4.374-3.578-7.952-7.952-7.952-4.374 0-7.953 3.578-7.953 7.952a7.934 7.934 0 007.953 7.953zm0-27.569c4.374 0 7.952-3.579 7.952-7.953 0-4.374-3.578-7.953-7.952-7.953-4.374 0-7.953 3.579-7.953 7.953a7.934 7.934 0 007.953 7.953zm0-27.504a8.03 8.03 0 005.633-2.319 8.03 8.03 0 002.319-5.633 8.028 8.028 0 00-2.319-5.633 8.03 8.03 0 00-5.633-2.32 8.031 8.031 0 00-5.634 2.32 8.028 8.028 0 00-2.319 5.633 8.03 8.03 0 002.319 5.633c1.525 1.458 3.513 2.319 5.634 2.319zm433.69 827.223a8.024 8.024 0 00-10.935 2.651 8.023 8.023 0 002.651 10.935 7.855 7.855 0 004.108 1.126c2.718 0 5.302-1.391 6.827-3.843 2.319-3.712 1.126-8.616-2.651-10.869zm29.491 17.827c-3.778-2.253-8.615-1.06-10.935 2.717a8.024 8.024 0 002.651 10.935 7.847 7.847 0 004.109 1.127c2.717 0 5.302-1.392 6.826-3.844 2.253-3.777 1.06-8.682-2.651-10.935zm30.883 19.02a8.028 8.028 0 00-5.633-2.319 8.028 8.028 0 00-5.633 2.319 8.031 8.031 0 00-2.32 5.634 8.03 8.03 0 002.32 5.633 8.028 8.028 0 005.633 2.319c2.054 0 4.175-.861 5.633-2.319a8.03 8.03 0 002.32-5.633 7.506 7.506 0 00-2.32-5.634zm-258.927-39.697c-3.844 2.121-5.169 7.025-3.049 10.803 1.458 2.584 4.175 4.042 6.959 4.042 1.325 0 2.651-.331 3.91-.994 3.844-2.187 5.169-7.025 3.048-10.802-2.187-3.844-7.024-5.17-10.868-3.049zm-29.757 16.701c-3.843 2.121-5.169 7.025-3.048 10.802 1.458 2.585 4.175 4.043 6.958 4.043 1.326 0 2.651-.331 3.911-.994 3.843-2.187 5.169-7.025 3.048-10.803-2.253-3.843-7.091-5.169-10.869-3.048zm-25.979 15.706a8.03 8.03 0 00-5.633 2.32 8.028 8.028 0 00-2.319 5.633c0 2.121.861 4.175 2.319 5.633a8.03 8.03 0 005.633 2.32 8.031 8.031 0 005.634-2.32 8.028 8.028 0 002.319-5.633 8.028 8.028 0 00-2.319-5.633 8.031 8.031 0 00-5.634-2.32zM853.139 587.5c4.374 0 7.952-3.578 7.952-7.952 0-4.374-3.578-7.953-7.952-7.953-4.374 0-7.953 3.579-7.953 7.953a7.933 7.933 0 007.953 7.952zm0-27.503c4.374 0 7.952-3.578 7.952-7.952 0-4.374-3.578-7.953-7.952-7.953-4.374 0-7.953 3.579-7.953 7.953a7.933 7.933 0 007.953 7.952zm0-27.569c4.374 0 7.952-3.579 7.952-7.953 0-4.374-3.578-7.953-7.952-7.953-4.374 0-7.953 3.579-7.953 7.953a7.934 7.934 0 007.953 7.953zm0-27.503a8.03 8.03 0 005.633-2.32 8.028 8.028 0 002.319-5.633 8.028 8.028 0 00-2.319-5.633 8.03 8.03 0 00-5.633-2.32 8.031 8.031 0 00-5.634 2.32 8.028 8.028 0 00-2.319 5.633c0 2.121.861 4.175 2.319 5.633 1.525 1.458 3.513 2.32 5.634 2.32z" fill="#FFC754"/><linearGradient id="c" x1="-.017" y1=".906" x2="1.001" y2=".281" gradientTransform="matrix(149.116 0 0 168.573 103.377 599.123)" gradientUnits="userSpaceOnUse"><stop offset="0%" stop-color="#008bcf"/><stop offset="97.826%" stop-color="#ffc754"/></linearGradient><path d="M248.516 639.193l-65.676-38.968a7.933 7.933 0 00-7.953-.066L108.35 637.47c-2.453 1.392-4.043 3.976-4.043 6.826l-.928 76.346c-.066 2.85 1.458 5.501 3.91 6.959l65.676 38.968c1.26.729 2.651 1.127 4.043 1.127 1.326 0 2.651-.332 3.91-.994l66.604-37.378c2.452-1.392 4.043-3.976 4.043-6.826l.928-76.346a8.124 8.124 0 00-3.977-6.959zm-79.328 106.699l-49.837-29.557.729-57.857 49.837 29.492-.729 57.922zm8.814-71.641l-49.969-29.557 50.632-28.431 49.969 29.624-50.632 28.364zm57.657 43.475l-50.566 28.365.729-57.989 50.566-28.298-.729 57.922z" fill="url(#c)"/><linearGradient id="d" x1="-.017" y1=".906" x2="1.001" y2=".281" gradientTransform="matrix(149.116 0 0 168.573 265.219 297.161)" gradientUnits="userSpaceOnUse"><stop offset="0%" stop-color="#008bcf"/><stop offset="97.826%" stop-color="#ffc754"/></linearGradient><path d="M410.359 337.232l-65.677-38.969a7.93 7.93 0 00-7.952-.066l-66.538 37.312c-2.452 1.391-4.043 3.976-4.043 6.826l-.927 76.346c-.067 2.85 1.458 5.5 3.91 6.958l65.676 38.969c1.259.729 2.651 1.126 4.042 1.126 1.326 0 2.651-.331 3.911-.994l66.604-37.377c2.452-1.392 4.042-3.977 4.042-6.827l.928-76.346c0-2.849-1.524-5.5-3.976-6.958zM331.03 443.931l-49.837-29.558.729-57.856 49.837 29.491-.729 57.923zm8.815-71.641l-49.97-29.558 50.632-28.431 49.97 29.624-50.632 28.365zm57.657 43.475l-50.566 28.365.729-57.989 50.566-28.298-.729 57.922z" fill="url(#d)"/><path d="M277.08 733.433a8.024 8.024 0 00-10.935 2.651 8.023 8.023 0 002.651 10.935 7.855 7.855 0 004.109 1.126c2.717 0 5.301-1.391 6.826-3.843 2.319-3.712 1.126-8.616-2.651-10.869zm29.491 17.827c-3.777-2.253-8.615-1.06-10.935 2.717a8.024 8.024 0 002.651 10.935 7.847 7.847 0 004.109 1.127c2.717 0 5.302-1.392 6.826-3.844 2.253-3.777 1.06-8.682-2.651-10.935zm30.883 19.02a8.028 8.028 0 00-5.633-2.319 8.028 8.028 0 00-5.633 2.319 8.031 8.031 0 00-2.32 5.634 8.03 8.03 0 002.32 5.633 8.028 8.028 0 005.633 2.319c2.054 0 4.175-.861 5.633-2.319a8.03 8.03 0 002.32-5.633 7.506 7.506 0 00-2.32-5.634zM78.527 730.583c-3.844 2.121-5.169 7.025-3.049 10.803 1.458 2.584 4.176 4.042 6.959 4.042 1.325 0 2.651-.331 3.91-.994 3.844-2.187 5.169-7.025 3.049-10.802-2.187-3.844-7.025-5.17-10.869-3.049zM48.77 747.284c-3.843 2.121-5.169 7.025-3.048 10.802 1.458 2.585 4.175 4.043 6.959 4.043 1.325 0 2.65-.331 3.91-.994 3.843-2.187 5.169-7.025 3.048-10.803-2.253-3.843-7.091-5.169-10.869-3.048zM22.792 762.99a8.031 8.031 0 00-5.634 2.32 8.028 8.028 0 00-2.319 5.633c0 2.121.861 4.175 2.319 5.633a8.031 8.031 0 005.634 2.32 8.03 8.03 0 005.633-2.32 8.028 8.028 0 002.319-5.633 8.028 8.028 0 00-2.319-5.633 8.03 8.03 0 00-5.633-2.32zM178.864 587.5c4.374 0 7.952-3.578 7.952-7.952 0-4.374-3.578-7.953-7.952-7.953-4.374 0-7.953 3.579-7.953 7.953a7.933 7.933 0 007.953 7.952zm0-27.503c4.374 0 7.952-3.578 7.952-7.952 0-4.374-3.578-7.953-7.952-7.953-4.374 0-7.953 3.579-7.953 7.953a7.933 7.933 0 007.953 7.952zm0-27.569c4.374 0 7.952-3.579 7.952-7.953 0-4.374-3.578-7.953-7.952-7.953-4.374 0-7.953 3.579-7.953 7.953a7.934 7.934 0 007.953 7.953zm0-27.503a8.03 8.03 0 005.633-2.32 8.028 8.028 0 002.319-5.633 8.028 8.028 0 00-2.319-5.633 8.03 8.03 0 00-5.633-2.32 8.029 8.029 0 00-5.633 2.32 8.029 8.029 0 00-2.32 5.633c0 2.121.862 4.175 2.32 5.633 1.524 1.458 3.512 2.32 5.633 2.32z" fill="#FFC754"/><linearGradient id="e" x1=".061" y1=".735" x2=".968" y2=".288" gradientTransform="matrix(149.116 0 0 168.573 19.467 151.614)" gradientUnits="userSpaceOnUse"><stop offset="2.174%" stop-color="#c0004f"/><stop offset="98.696%" stop-color="#f3665b"/></linearGradient><path d="M164.606 191.684L98.93 152.716a7.933 7.933 0 00-7.953-.066L24.44 189.961c-2.453 1.392-4.043 3.976-4.043 6.826l-.928 76.346c-.066 2.85 1.458 5.501 3.91 6.959l65.676 38.968c1.26.729 2.651 1.127 4.043 1.127 1.325 0 2.651-.332 3.91-.994l66.604-37.378c2.452-1.392 4.043-3.976 4.043-6.826l.928-76.346a8.124 8.124 0 00-3.977-6.959zM85.278 298.383l-49.837-29.558.729-57.856 49.837 29.492-.729 57.922zm8.814-71.641l-49.969-29.557 50.632-28.431 49.969 29.624-50.632 28.364zm57.657 43.475l-50.566 28.365.729-57.989 50.566-28.298-.729 57.922z" fill="url(#e)"/><path d="M192.241 282.142a8.024 8.024 0 00-10.935 2.651 8.025 8.025 0 002.651 10.935 7.857 7.857 0 004.109 1.127c2.717 0 5.302-1.392 6.826-3.844 2.319-3.712 1.126-8.616-2.651-10.869zm29.491 17.827c-3.777-2.253-8.615-1.06-10.935 2.718a8.025 8.025 0 002.651 10.935 7.858 7.858 0 004.109 1.126c2.717 0 5.302-1.392 6.826-3.844 2.253-3.777 1.06-8.681-2.651-10.935zm30.883 19.021a8.029 8.029 0 00-5.633-2.32 8.029 8.029 0 00-5.633 2.32 8.029 8.029 0 00-2.32 5.633c0 2.121.862 4.175 2.32 5.633a8.029 8.029 0 005.633 2.32c2.055 0 4.175-.862 5.633-2.32a8.029 8.029 0 002.32-5.633 7.5 7.5 0 00-2.32-5.633zM-6.312 279.292c-3.844 2.121-5.169 7.025-3.049 10.803 1.458 2.584 4.176 4.042 6.959 4.042 1.326 0 2.651-.331 3.91-.994 3.844-2.187 5.169-7.025 3.049-10.802-2.187-3.844-7.025-5.169-10.869-3.049zm-29.756 16.701c-3.844 2.121-5.17 7.025-3.049 10.802 1.458 2.585 4.175 4.043 6.959 4.043 1.325 0 2.651-.331 3.91-.994 3.844-2.187 5.169-7.025 3.048-10.802-2.253-3.844-7.091-5.17-10.868-3.049zM-62.047 311.7a8.028 8.028 0 00-5.633 2.319 8.03 8.03 0 00-2.32 5.633c0 2.121.862 4.176 2.32 5.634a8.028 8.028 0 005.633 2.319 8.03 8.03 0 005.633-2.319 8.03 8.03 0 002.319-5.634 8.03 8.03 0 00-2.319-5.633 8.03 8.03 0 00-5.633-2.319zM94.025 136.21c4.374 0 7.953-3.579 7.953-7.953 0-4.374-3.579-7.953-7.953-7.953-4.374 0-7.953 3.579-7.953 7.953a7.934 7.934 0 007.953 7.953zm0-27.503c4.374 0 7.953-3.579 7.953-7.953 0-4.374-3.579-7.953-7.953-7.953-4.374 0-7.953 3.579-7.953 7.953a7.934 7.934 0 007.953 7.953zm0-27.57c4.374 0 7.953-3.579 7.953-7.953 0-4.374-3.579-7.952-7.953-7.952-4.374 0-7.953 3.578-7.953 7.952a7.934 7.934 0 007.953 7.953zm0-27.503a8.029 8.029 0 005.633-2.32 8.029 8.029 0 002.32-5.633 8.029 8.029 0 00-2.32-5.633 8.029 8.029 0 00-5.633-2.32 8.029 8.029 0 00-5.633 2.32 8.029 8.029 0 00-2.32 5.633c0 2.121.862 4.175 2.32 5.633 1.524 1.458 3.512 2.32 5.633 2.32z" fill="#C0004F"/><path d="M1037.303 295.524a8.024 8.024 0 00-10.935 2.651 8.023 8.023 0 002.65 10.935 7.862 7.862 0 004.109 1.127c2.718 0 5.302-1.392 6.826-3.844 2.32-3.711 1.127-8.616-2.65-10.869zm29.491 17.828c-3.778-2.254-8.616-1.061-10.935 2.717a8.024 8.024 0 002.651 10.935 7.855 7.855 0 004.109 1.126c2.717 0 5.301-1.391 6.826-3.843 2.253-3.778 1.06-8.682-2.651-10.935zm30.883 19.02a8.03 8.03 0 00-5.633-2.32 8.029 8.029 0 00-5.633 2.32 8.029 8.029 0 00-2.32 5.633c0 2.121.862 4.175 2.32 5.633a8.029 8.029 0 005.633 2.32c2.054 0 4.175-.862 5.633-2.32a8.028 8.028 0 002.319-5.633 7.5 7.5 0 00-2.319-5.633zM838.75 292.674c-3.844 2.121-5.17 7.025-3.049 10.803 1.458 2.585 4.175 4.043 6.959 4.043 1.325 0 2.651-.332 3.91-.995 3.844-2.187 5.169-7.024 3.048-10.802-2.187-3.844-7.025-5.169-10.868-3.049zm-29.757 16.701c-3.844 2.121-5.169 7.025-3.048 10.803 1.458 2.584 4.175 4.042 6.958 4.042 1.326 0 2.651-.331 3.91-.994 3.844-2.187 5.17-7.025 3.049-10.802-2.253-3.844-7.091-5.17-10.869-3.049zm-25.979 15.707a8.03 8.03 0 00-5.633 2.319 8.03 8.03 0 00-2.319 5.634 8.03 8.03 0 002.319 5.633 8.03 8.03 0 005.633 2.319 8.03 8.03 0 005.634-2.319 8.03 8.03 0 002.319-5.633 8.03 8.03 0 00-2.319-5.634 8.03 8.03 0 00-5.634-2.319zm156.072-175.49c4.374 0 7.953-3.579 7.953-7.953 0-4.374-3.579-7.953-7.953-7.953-4.374 0-7.952 3.579-7.952 7.953a7.933 7.933 0 007.952 7.953zm0-27.503c4.374 0 7.953-3.579 7.953-7.953 0-4.374-3.579-7.953-7.953-7.953-4.374 0-7.952 3.579-7.952 7.953a7.933 7.933 0 007.952 7.953zm0-27.57c4.374 0 7.953-3.578 7.953-7.952 0-4.374-3.579-7.953-7.953-7.953-4.374 0-7.952 3.579-7.952 7.953a7.933 7.933 0 007.952 7.952zm0-27.503a8.03 8.03 0 005.634-2.319 8.03 8.03 0 002.319-5.634 8.03 8.03 0 00-2.319-5.633 8.03 8.03 0 00-5.634-2.319 8.03 8.03 0 00-5.633 2.319 8.03 8.03 0 00-2.319 5.633 8.03 8.03 0 002.319 5.634c1.525 1.458 3.513 2.319 5.633 2.319z" fill="#FFC754"/><linearGradient id="f" x1="-.017" y1=".906" x2="1.001" y2=".281" gradientTransform="matrix(149.116 0 0 168.573 441.551 1.057)" gradientUnits="userSpaceOnUse"><stop offset="0%" stop-color="#008bcf"/><stop offset="97.826%" stop-color="#ffc754"/></linearGradient><path d="M586.69 41.127L521.014 2.159a7.93 7.93 0 00-7.952-.066l-66.538 37.311c-2.452 1.392-4.043 3.977-4.043 6.826l-.928 76.347c-.066 2.849 1.458 5.5 3.91 6.958l65.677 38.969c1.259.729 2.651 1.126 4.042 1.126 1.326 0 2.651-.331 3.91-.994l66.604-37.378c2.452-1.391 4.043-3.976 4.043-6.826l.928-76.346a8.122 8.122 0 00-3.977-6.959zm-79.328 106.699l-49.837-29.557.729-57.856 49.837 29.491-.729 57.922zm8.814-71.64l-49.969-29.558 50.632-28.431 49.97 29.624-50.633 28.365zm57.658 43.475l-50.567 28.364.481-38.229.248-19.759 50.567-28.299-.729 57.923z" fill="url(#f)"/><linearGradient id="g" x1="-.017" y1=".906" x2="1.001" y2=".281" gradientTransform="matrix(149.116 0 0 168.573 862.973 164.003)" gradientUnits="userSpaceOnUse"><stop offset="0%" stop-color="#008bcf"/><stop offset="97.826%" stop-color="#ffc754"/></linearGradient><path d="M1008.112 204.073l-65.676-38.968a7.935 7.935 0 00-7.953-.067l-66.537 37.312c-2.453 1.391-4.043 3.976-4.043 6.826l-.928 76.346c-.066 2.85 1.458 5.501 3.91 6.959l65.676 38.968c1.26.729 2.651 1.127 4.043 1.127 1.325 0 2.651-.332 3.91-.995l66.604-37.377c2.452-1.392 4.043-3.977 4.043-6.826l.928-76.347c0-2.849-1.525-5.5-3.977-6.958zm-79.328 106.699l-49.837-29.558.729-57.856 49.837 29.492-.729 57.922zm8.814-71.641l-49.969-29.558 50.632-28.43 49.969 29.623-50.632 28.365zm57.657 43.475l-50.566 28.365.729-57.989 50.566-28.298-.729 57.922z" fill="url(#g)"/><linearGradient id="h" x1="-.017" y1=".906" x2="1.001" y2=".281" gradientTransform="matrix(149.116 0 0 168.573 777.025 597.702)" gradientUnits="userSpaceOnUse"><stop offset="0%" stop-color="#008bcf"/><stop offset="97.826%" stop-color="#ffc754"/></linearGradient><path d="M922.164 637.772l-65.676-38.968c-2.452-1.458-5.5-1.458-7.953-.067l-66.537 37.312c-2.452 1.392-4.043 3.976-4.043 6.826l-.928 76.346c-.066 2.85 1.458 5.501 3.91 6.959l65.677 38.968c1.259.729 2.65 1.127 4.042 1.127 1.326 0 2.651-.332 3.91-.994l66.604-37.378c2.452-1.392 4.043-3.977 4.043-6.826l.928-76.346a8.124 8.124 0 00-3.977-6.959zm-79.328 106.699l-49.837-29.558.729-57.856 49.837 29.492-.729 57.922zm8.814-71.641l-49.969-29.557 50.632-28.431 49.97 29.624-50.633 28.364zm57.657 43.475l-50.566 28.365.729-57.989 50.566-28.298-.729 57.922z" fill="url(#h)"/></g></svg>