<?xml version="1.0" encoding="UTF-8" standalone="no"?><!-- Generator: Gravit.io --><svg xmlns="http://www.w3.org/2000/svg" xmlns:xlink="http://www.w3.org/1999/xlink" style="isolation:isolate" viewBox="-70 -109.695 1170 893.561" width="1170pt" height="893.561pt"><defs><clipPath id="_clipPath_WQF7QR7UFTmpBu6bcQzkjDeH5GBXlBHg"><rect x="-70" y="-109.695" width="1170" height="893.561"/></clipPath></defs><g clip-path="url(#_clipPath_WQF7QR7UFTmpBu6bcQzkjDeH5GBXlBHg)"><g><g><g><path d=" M 439.549 429.566 C 435.771 427.312 430.934 428.505 428.614 432.216 C 426.361 435.994 427.554 440.832 431.265 443.151 C 432.59 443.947 433.982 444.278 435.374 444.278 C 438.091 444.278 440.676 442.886 442.2 440.434 C 444.519 436.723 443.326 431.819 439.549 429.566 Z " fill="rgb(255,199,84)"/><path d=" M 469.04 447.393 C 465.263 445.14 460.425 446.333 458.105 450.11 C 455.852 453.888 457.045 458.726 460.756 461.045 C 462.082 461.84 463.473 462.172 464.865 462.172 C 467.582 462.172 470.167 460.78 471.691 458.328 C 473.944 454.55 472.752 449.646 469.04 447.393 Z " fill="rgb(255,199,84)"/><path d=" M 499.923 466.413 C 498.465 464.955 496.411 464.094 494.29 464.094 C 492.169 464.094 490.115 464.955 488.657 466.413 C 487.199 467.871 486.337 469.926 486.337 472.046 C 486.337 474.167 487.199 476.222 488.657 477.68 C 490.115 479.138 492.169 479.999 494.29 479.999 C 496.345 479.999 498.465 479.138 499.923 477.68 C 501.381 476.222 502.243 474.167 502.243 472.046 C 502.309 469.926 501.448 467.871 499.923 466.413 Z " fill="rgb(255,199,84)"/><path d=" M 240.996 426.716 C 237.152 428.837 235.827 433.741 237.948 437.518 C 239.406 440.103 242.123 441.561 244.906 441.561 C 246.232 441.561 247.557 441.23 248.816 440.567 C 252.66 438.38 253.986 433.542 251.865 429.764 C 249.678 425.921 244.84 424.595 240.996 426.716 Z " fill="rgb(255,199,84)"/><path d=" M 211.24 443.417 C 207.396 445.537 206.07 450.441 208.191 454.219 C 209.649 456.804 212.366 458.262 215.15 458.262 C 216.475 458.262 217.801 457.93 219.06 457.268 C 222.904 455.081 224.229 450.243 222.108 446.465 C 219.855 442.621 215.017 441.296 211.24 443.417 Z " fill="rgb(255,199,84)"/><path d=" M 185.261 459.123 C 183.14 459.123 181.086 459.985 179.628 461.443 C 178.17 462.901 177.308 464.955 177.308 467.076 C 177.308 469.197 178.17 471.251 179.628 472.709 C 181.086 474.167 183.14 475.029 185.261 475.029 C 187.381 475.029 189.436 474.167 190.894 472.709 C 192.352 471.251 193.213 469.197 193.213 467.076 C 193.213 464.955 192.352 462.901 190.894 461.443 C 189.436 459.985 187.381 459.123 185.261 459.123 Z " fill="rgb(255,199,84)"/><path d=" M 341.333 283.633 C 345.707 283.633 349.286 280.054 349.286 275.68 C 349.286 271.306 345.707 267.728 341.333 267.728 C 336.959 267.728 333.38 271.306 333.38 275.68 C 333.38 280.054 336.893 283.633 341.333 283.633 Z " fill="rgb(255,199,84)"/><path d=" M 341.333 256.13 L 341.333 256.13 C 345.707 256.13 349.286 252.551 349.286 248.177 C 349.286 243.803 345.707 240.225 341.333 240.225 C 336.959 240.225 333.38 243.803 333.38 248.177 C 333.38 252.551 336.893 256.13 341.333 256.13 Z " fill="rgb(255,199,84)"/><path d=" M 341.333 228.561 C 345.707 228.561 349.286 224.982 349.286 220.608 C 349.286 216.234 345.707 212.655 341.333 212.655 C 336.959 212.655 333.38 216.234 333.38 220.608 C 333.38 225.048 336.959 228.561 341.333 228.561 Z " fill="rgb(255,199,84)"/><path d=" M 341.333 201.057 C 343.454 201.057 345.508 200.196 346.966 198.738 C 348.424 197.28 349.286 195.225 349.286 193.105 C 349.286 190.984 348.424 188.93 346.966 187.472 C 345.508 186.014 343.454 185.152 341.333 185.152 C 339.212 185.152 337.158 186.014 335.7 187.472 C 334.242 188.93 333.38 190.984 333.38 193.105 C 333.38 195.225 334.242 197.28 335.7 198.738 C 337.224 200.196 339.212 201.057 341.333 201.057 Z " fill="rgb(255,199,84)"/></g></g><g><g><linearGradient id="_lgradient_0" x1="0.060719461725708995" y1="0.7349721746004497" x2="0.9680599624405665" y2="0.2876149264865544" gradientTransform="matrix(149.116,0,0,168.573,615.183,295.256)" gradientUnits="userSpaceOnUse"><stop offset="2.1739130434782608%" stop-opacity="1" style="stop-color:rgb(192,0,79)"/><stop offset="98.69565217391305%" stop-opacity="1" style="stop-color:rgb(243,102,91)"/></linearGradient><path d=" M 760.322 335.326 L 694.646 296.358 C 692.194 294.9 689.145 294.9 686.693 296.291 L 620.155 333.603 C 617.703 334.994 616.113 337.579 616.113 340.429 L 615.185 416.775 C 615.119 419.625 616.643 422.276 619.095 423.734 L 684.771 462.702 C 686.03 463.431 687.422 463.829 688.814 463.829 C 690.139 463.829 691.465 463.497 692.724 462.834 L 759.328 425.457 C 761.78 424.065 763.37 421.48 763.37 418.631 L 764.298 342.284 C 764.298 339.435 762.774 336.784 760.322 335.326 Z  M 680.994 442.025 L 631.157 412.467 L 631.886 354.611 L 681.723 384.103 L 680.994 442.025 Z  M 689.808 370.384 L 639.838 340.826 L 690.471 312.396 L 740.44 342.019 L 689.808 370.384 Z  M 747.465 413.859 L 696.899 442.224 L 697.628 384.235 L 748.194 355.937 L 747.465 413.859 Z " fill="url(#_lgradient_0)"/><path d=" M 788.885 429.566 C 785.108 427.312 780.27 428.505 777.95 432.216 C 775.697 435.994 776.89 440.832 780.601 443.151 C 781.927 443.947 783.319 444.278 784.71 444.278 C 787.427 444.278 790.012 442.886 791.536 440.434 C 793.856 436.723 792.663 431.819 788.885 429.566 Z " fill="rgb(192,0,79)"/><path d=" M 818.377 447.393 C 814.599 445.14 809.761 446.333 807.442 450.11 C 805.189 453.888 806.381 458.726 810.093 461.045 C 811.418 461.84 812.81 462.172 814.202 462.172 C 816.919 462.172 819.503 460.78 821.028 458.328 C 823.281 454.55 822.088 449.646 818.377 447.393 Z " fill="rgb(192,0,79)"/><path d=" M 849.26 466.413 C 847.802 464.955 845.747 464.094 843.627 464.094 C 841.506 464.094 839.451 464.955 837.993 466.413 C 836.535 467.871 835.674 469.926 835.674 472.046 C 835.674 474.167 836.535 476.222 837.993 477.68 C 839.451 479.138 841.506 479.999 843.627 479.999 C 845.681 479.999 847.802 479.138 849.26 477.68 C 850.718 476.222 851.579 474.167 851.579 472.046 C 851.646 469.926 850.784 467.871 849.26 466.413 Z " fill="rgb(192,0,79)"/><path d=" M 590.333 426.716 C 586.489 428.837 585.163 433.741 587.284 437.518 C 588.742 440.103 591.459 441.561 594.243 441.561 C 595.568 441.561 596.894 441.23 598.153 440.567 C 601.997 438.38 603.322 433.542 601.201 429.764 C 599.014 425.921 594.176 424.595 590.333 426.716 Z " fill="rgb(192,0,79)"/><path d=" M 560.576 443.417 C 556.732 445.537 555.407 450.441 557.528 454.219 C 558.986 456.804 561.703 458.262 564.486 458.262 C 565.812 458.262 567.137 457.93 568.396 457.268 C 572.24 455.081 573.566 450.243 571.445 446.465 C 569.192 442.621 564.354 441.296 560.576 443.417 Z " fill="rgb(192,0,79)"/><path d=" M 534.597 459.123 C 532.477 459.123 530.422 459.985 528.964 461.443 C 527.506 462.901 526.645 464.955 526.645 467.076 C 526.645 469.197 527.506 471.251 528.964 472.709 C 530.422 474.167 532.477 475.029 534.597 475.029 C 536.718 475.029 538.772 474.167 540.23 472.709 C 541.688 471.251 542.55 469.197 542.55 467.076 C 542.55 464.955 541.688 462.901 540.23 461.443 C 538.772 459.985 536.718 459.123 534.597 459.123 Z " fill="rgb(192,0,79)"/><path d=" M 690.669 283.633 C 695.043 283.633 698.622 280.054 698.622 275.68 C 698.622 271.306 695.043 267.728 690.669 267.728 C 686.295 267.728 682.717 271.306 682.717 275.68 C 682.717 280.054 686.229 283.633 690.669 283.633 Z " fill="rgb(192,0,79)"/><path d=" M 690.669 256.13 L 690.669 256.13 C 695.043 256.13 698.622 252.551 698.622 248.177 C 698.622 243.803 695.043 240.225 690.669 240.225 C 686.295 240.225 682.717 243.803 682.717 248.177 C 682.717 252.551 686.229 256.13 690.669 256.13 Z " fill="rgb(192,0,79)"/><path d=" M 690.669 228.561 C 695.043 228.561 698.622 224.982 698.622 220.608 C 698.622 216.234 695.043 212.655 690.669 212.655 C 686.295 212.655 682.717 216.234 682.717 220.608 C 682.717 225.048 686.295 228.561 690.669 228.561 Z " fill="rgb(192,0,79)"/><path d=" M 690.669 201.057 C 692.79 201.057 694.845 200.196 696.303 198.738 C 697.761 197.28 698.622 195.225 698.622 193.105 C 698.622 190.984 697.761 188.93 696.303 187.472 C 694.845 186.014 692.79 185.152 690.669 185.152 C 688.549 185.152 686.494 186.014 685.036 187.472 C 683.578 188.93 682.717 190.984 682.717 193.105 C 682.717 195.225 683.578 197.28 685.036 198.738 C 686.56 200.196 688.549 201.057 690.669 201.057 Z " fill="rgb(192,0,79)"/></g></g><g><g><path d=" M 615.881 134.719 C 612.103 132.465 607.265 133.658 604.946 137.369 C 602.692 141.147 603.885 145.985 607.597 148.304 C 608.922 149.1 610.314 149.431 611.706 149.431 C 614.423 149.431 617.007 148.039 618.532 145.587 C 620.851 141.876 619.658 136.972 615.881 134.719 Z " fill="rgb(255,199,84)"/><path d=" M 645.372 152.546 C 641.595 150.293 636.757 151.486 634.437 155.263 C 632.184 159.041 633.377 163.878 637.088 166.198 C 638.413 166.993 639.805 167.325 641.197 167.325 C 643.914 167.325 646.499 165.933 648.023 163.481 C 650.276 159.703 649.083 154.799 645.372 152.546 Z " fill="rgb(255,199,84)"/><path d=" M 676.255 171.566 C 674.797 170.108 672.743 169.247 670.622 169.247 C 668.501 169.247 666.447 170.108 664.989 171.566 C 663.531 173.024 662.669 175.079 662.669 177.199 C 662.669 179.32 663.531 181.374 664.989 182.832 C 666.447 184.29 668.501 185.152 670.622 185.152 C 672.676 185.152 674.797 184.29 676.255 182.832 C 677.713 181.374 678.575 179.32 678.575 177.199 C 678.641 175.079 677.779 173.024 676.255 171.566 Z " fill="rgb(255,199,84)"/><path d=" M 417.328 131.869 C 413.484 133.99 412.159 138.894 414.279 142.671 C 415.737 145.256 418.454 146.714 421.238 146.714 C 422.563 146.714 423.889 146.383 425.148 145.72 C 428.992 143.533 430.317 138.695 428.197 134.917 C 426.01 131.074 421.172 129.748 417.328 131.869 Z " fill="rgb(255,199,84)"/><path d=" M 387.571 148.57 C 383.728 150.69 382.402 155.594 384.523 159.372 C 385.981 161.957 388.698 163.415 391.482 163.415 C 392.807 163.415 394.132 163.083 395.392 162.42 C 399.235 160.233 400.561 155.396 398.44 151.618 C 396.187 147.774 391.349 146.449 387.571 148.57 Z " fill="rgb(255,199,84)"/><path d=" M 361.593 164.276 C 359.472 164.276 357.417 165.138 355.959 166.596 C 354.501 168.054 353.64 170.108 353.64 172.229 C 353.64 174.35 354.501 176.404 355.959 177.862 C 357.417 179.32 359.472 180.182 361.593 180.182 C 363.713 180.182 365.768 179.32 367.226 177.862 C 368.684 176.404 369.545 174.35 369.545 172.229 C 369.545 170.108 368.684 168.054 367.226 166.596 C 365.768 165.138 363.713 164.276 361.593 164.276 Z " fill="rgb(255,199,84)"/><path d=" M 517.665 -11.214 C 522.039 -11.214 525.617 -14.793 525.617 -19.167 C 525.617 -23.541 522.039 -27.119 517.665 -27.119 C 513.291 -27.119 509.712 -23.541 509.712 -19.167 C 509.712 -14.793 513.224 -11.214 517.665 -11.214 Z " fill="rgb(255,199,84)"/><path d=" M 517.665 -38.717 L 517.665 -38.717 C 522.039 -38.717 525.617 -42.296 525.617 -46.67 C 525.617 -51.044 522.039 -54.622 517.665 -54.622 C 513.291 -54.622 509.712 -51.044 509.712 -46.67 C 509.712 -42.296 513.224 -38.717 517.665 -38.717 Z " fill="rgb(255,199,84)"/><path d=" M 517.665 -66.286 C 522.039 -66.286 525.617 -69.865 525.617 -74.239 C 525.617 -78.613 522.039 -82.192 517.665 -82.192 C 513.291 -82.192 509.712 -78.613 509.712 -74.239 C 509.712 -69.799 513.291 -66.286 517.665 -66.286 Z " fill="rgb(255,199,84)"/><path d=" M 517.665 -93.79 C 519.785 -93.79 521.84 -94.651 523.298 -96.109 C 524.756 -97.567 525.617 -99.622 525.617 -101.742 C 525.617 -103.863 524.756 -105.917 523.298 -107.375 C 521.84 -108.833 519.785 -109.695 517.665 -109.695 C 515.544 -109.695 513.489 -108.833 512.031 -107.375 C 510.573 -105.917 509.712 -103.863 509.712 -101.742 C 509.712 -99.622 510.573 -97.567 512.031 -96.109 C 513.556 -94.651 515.544 -93.79 517.665 -93.79 Z " fill="rgb(255,199,84)"/></g></g><g><g><path d=" M 951.355 733.433 C 947.577 731.18 942.739 732.373 940.42 736.084 C 938.166 739.861 939.359 744.699 943.071 747.019 C 944.396 747.814 945.788 748.145 947.179 748.145 C 949.897 748.145 952.481 746.754 954.006 744.302 C 956.325 740.59 955.132 735.686 951.355 733.433 Z " fill="rgb(255,199,84)"/><path d=" M 980.846 751.26 C 977.068 749.007 972.231 750.2 969.911 753.977 C 967.658 757.755 968.851 762.593 972.562 764.912 C 973.887 765.708 975.279 766.039 976.671 766.039 C 979.388 766.039 981.973 764.647 983.497 762.195 C 985.75 758.418 984.557 753.513 980.846 751.26 Z " fill="rgb(255,199,84)"/><path d=" M 1011.729 770.28 C 1010.271 768.822 1008.217 767.961 1006.096 767.961 C 1003.975 767.961 1001.921 768.822 1000.463 770.28 C 999.005 771.738 998.143 773.793 998.143 775.914 C 998.143 778.034 999.005 780.089 1000.463 781.547 C 1001.921 783.005 1003.975 783.866 1006.096 783.866 C 1008.15 783.866 1010.271 783.005 1011.729 781.547 C 1013.187 780.089 1014.049 778.034 1014.049 775.914 C 1014.115 773.793 1013.253 771.738 1011.729 770.28 Z " fill="rgb(255,199,84)"/><path d=" M 752.802 730.583 C 748.958 732.704 747.633 737.608 749.753 741.386 C 751.211 743.97 753.928 745.428 756.712 745.428 C 758.037 745.428 759.363 745.097 760.622 744.434 C 764.466 742.247 765.791 737.409 763.67 733.632 C 761.483 729.788 756.646 728.462 752.802 730.583 Z " fill="rgb(255,199,84)"/><path d=" M 723.045 747.284 C 719.202 749.405 717.876 754.309 719.997 758.086 C 721.455 760.671 724.172 762.129 726.955 762.129 C 728.281 762.129 729.606 761.798 730.866 761.135 C 734.709 758.948 736.035 754.11 733.914 750.332 C 731.661 746.489 726.823 745.163 723.045 747.284 Z " fill="rgb(255,199,84)"/><path d=" M 697.066 762.99 C 694.946 762.99 692.891 763.852 691.433 765.31 C 689.975 766.768 689.114 768.822 689.114 770.943 C 689.114 773.064 689.975 775.118 691.433 776.576 C 692.891 778.034 694.946 778.896 697.066 778.896 C 699.187 778.896 701.242 778.034 702.7 776.576 C 704.158 775.118 705.019 773.064 705.019 770.943 C 705.019 768.822 704.158 766.768 702.7 765.31 C 701.242 763.852 699.187 762.99 697.066 762.99 Z " fill="rgb(255,199,84)"/><path d=" M 853.139 587.5 C 857.513 587.5 861.091 583.922 861.091 579.548 C 861.091 575.174 857.513 571.595 853.139 571.595 C 848.765 571.595 845.186 575.174 845.186 579.548 C 845.186 583.922 848.698 587.5 853.139 587.5 Z " fill="rgb(255,199,84)"/><path d=" M 853.139 559.997 L 853.139 559.997 C 857.513 559.997 861.091 556.419 861.091 552.045 C 861.091 547.671 857.513 544.092 853.139 544.092 C 848.765 544.092 845.186 547.671 845.186 552.045 C 845.186 556.419 848.698 559.997 853.139 559.997 Z " fill="rgb(255,199,84)"/><path d=" M 853.139 532.428 C 857.513 532.428 861.091 528.849 861.091 524.475 C 861.091 520.101 857.513 516.522 853.139 516.522 C 848.765 516.522 845.186 520.101 845.186 524.475 C 845.186 528.915 848.765 532.428 853.139 532.428 Z " fill="rgb(255,199,84)"/><path d=" M 853.139 504.925 C 855.259 504.925 857.314 504.063 858.772 502.605 C 860.23 501.147 861.091 499.093 861.091 496.972 C 861.091 494.851 860.23 492.797 858.772 491.339 C 857.314 489.881 855.259 489.019 853.139 489.019 C 851.018 489.019 848.963 489.881 847.505 491.339 C 846.047 492.797 845.186 494.851 845.186 496.972 C 845.186 499.093 846.047 501.147 847.505 502.605 C 849.03 504.063 851.018 504.925 853.139 504.925 Z " fill="rgb(255,199,84)"/></g></g><g><g><linearGradient id="_lgradient_1" x1="-0.017371293456572956" y1="0.9060205431716559" x2="1.0013621940491428" y2="0.28059756688693505" gradientTransform="matrix(149.116,0,0,168.573,103.377,599.123)" gradientUnits="userSpaceOnUse"><stop offset="0%" stop-opacity="1" style="stop-color:rgb(0,139,207)"/><stop offset="97.82608695652173%" stop-opacity="1" style="stop-color:rgb(255,199,84)"/></linearGradient><path d=" M 248.516 639.193 L 182.84 600.225 C 180.388 598.767 177.339 598.767 174.887 600.159 L 108.35 637.47 C 105.897 638.862 104.307 641.446 104.307 644.296 L 103.379 720.642 C 103.313 723.492 104.837 726.143 107.289 727.601 L 172.965 766.569 C 174.225 767.298 175.616 767.696 177.008 767.696 C 178.334 767.696 179.659 767.364 180.918 766.702 L 247.522 729.324 C 249.974 727.932 251.565 725.348 251.565 722.498 L 252.493 646.152 C 252.493 643.302 250.968 640.651 248.516 639.193 Z  M 169.188 745.892 L 119.351 716.335 L 120.08 658.478 L 169.917 687.97 L 169.188 745.892 Z  M 178.002 674.251 L 128.033 644.694 L 178.665 616.263 L 228.634 645.887 L 178.002 674.251 Z  M 235.659 717.726 L 185.093 746.091 L 185.822 688.102 L 236.388 659.804 L 235.659 717.726 Z " fill="url(#_lgradient_1)"/><linearGradient id="_lgradient_2" x1="-0.017371293456572956" y1="0.9060205431716559" x2="1.0013621940491428" y2="0.28059756688693505" gradientTransform="matrix(149.116,0,0,168.573,265.219,297.161)" gradientUnits="userSpaceOnUse"><stop offset="0%" stop-opacity="1" style="stop-color:rgb(0,139,207)"/><stop offset="97.82608695652173%" stop-opacity="1" style="stop-color:rgb(255,199,84)"/></linearGradient><path d=" M 410.359 337.232 L 344.682 298.263 C 342.23 296.805 339.182 296.805 336.73 298.197 L 270.192 335.509 C 267.74 336.9 266.149 339.485 266.149 342.335 L 265.222 418.681 C 265.155 421.531 266.68 424.181 269.132 425.639 L 334.808 464.608 C 336.067 465.337 337.459 465.734 338.85 465.734 C 340.176 465.734 341.501 465.403 342.761 464.74 L 409.365 427.363 C 411.817 425.971 413.407 423.386 413.407 420.536 L 414.335 344.19 C 414.335 341.341 412.811 338.69 410.359 337.232 Z  M 331.03 443.931 L 281.193 414.373 L 281.922 356.517 L 331.759 386.008 L 331.03 443.931 Z  M 339.845 372.29 L 289.875 342.732 L 340.507 314.301 L 390.477 343.925 L 339.845 372.29 Z  M 397.502 415.765 L 346.936 444.13 L 347.665 386.141 L 398.231 357.843 L 397.502 415.765 Z " fill="url(#_lgradient_2)"/><path d=" M 277.08 733.433 C 273.302 731.18 268.464 732.373 266.145 736.084 C 263.891 739.861 265.084 744.699 268.796 747.019 C 270.121 747.814 271.513 748.145 272.905 748.145 C 275.622 748.145 278.206 746.754 279.731 744.302 C 282.05 740.59 280.857 735.686 277.08 733.433 Z " fill="rgb(255,199,84)"/><path d=" M 306.571 751.26 C 302.794 749.007 297.956 750.2 295.636 753.977 C 293.383 757.755 294.576 762.593 298.287 764.912 C 299.612 765.708 301.004 766.039 302.396 766.039 C 305.113 766.039 307.698 764.647 309.222 762.195 C 311.475 758.418 310.282 753.513 306.571 751.26 Z " fill="rgb(255,199,84)"/><path d=" M 337.454 770.28 C 335.996 768.822 333.942 767.961 331.821 767.961 C 329.7 767.961 327.646 768.822 326.188 770.28 C 324.73 771.738 323.868 773.793 323.868 775.914 C 323.868 778.034 324.73 780.089 326.188 781.547 C 327.646 783.005 329.7 783.866 331.821 783.866 C 333.875 783.866 335.996 783.005 337.454 781.547 C 338.912 780.089 339.774 778.034 339.774 775.914 C 339.84 773.793 338.978 771.738 337.454 770.28 Z " fill="rgb(255,199,84)"/><path d=" M 78.527 730.583 C 74.683 732.704 73.358 737.608 75.478 741.386 C 76.936 743.97 79.654 745.428 82.437 745.428 C 83.762 745.428 85.088 745.097 86.347 744.434 C 90.191 742.247 91.516 737.409 89.396 733.632 C 87.209 729.788 82.371 728.462 78.527 730.583 Z " fill="rgb(255,199,84)"/><path d=" M 48.77 747.284 C 44.927 749.405 43.601 754.309 45.722 758.086 C 47.18 760.671 49.897 762.129 52.681 762.129 C 54.006 762.129 55.331 761.798 56.591 761.135 C 60.434 758.948 61.76 754.11 59.639 750.332 C 57.386 746.489 52.548 745.163 48.77 747.284 Z " fill="rgb(255,199,84)"/><path d=" M 22.792 762.99 C 20.671 762.99 18.616 763.852 17.158 765.31 C 15.7 766.768 14.839 768.822 14.839 770.943 C 14.839 773.064 15.7 775.118 17.158 776.576 C 18.616 778.034 20.671 778.896 22.792 778.896 C 24.912 778.896 26.967 778.034 28.425 776.576 C 29.883 775.118 30.744 773.064 30.744 770.943 C 30.744 768.822 29.883 766.768 28.425 765.31 C 26.967 763.852 24.912 762.99 22.792 762.99 Z " fill="rgb(255,199,84)"/><path d=" M 178.864 587.5 C 183.238 587.5 186.816 583.922 186.816 579.548 C 186.816 575.174 183.238 571.595 178.864 571.595 C 174.49 571.595 170.911 575.174 170.911 579.548 C 170.911 583.922 174.423 587.5 178.864 587.5 Z " fill="rgb(255,199,84)"/><path d=" M 178.864 559.997 L 178.864 559.997 C 183.238 559.997 186.816 556.419 186.816 552.045 C 186.816 547.671 183.238 544.092 178.864 544.092 C 174.49 544.092 170.911 547.671 170.911 552.045 C 170.911 556.419 174.423 559.997 178.864 559.997 Z " fill="rgb(255,199,84)"/><path d=" M 178.864 532.428 C 183.238 532.428 186.816 528.849 186.816 524.475 C 186.816 520.101 183.238 516.522 178.864 516.522 C 174.49 516.522 170.911 520.101 170.911 524.475 C 170.911 528.915 174.49 532.428 178.864 532.428 Z " fill="rgb(255,199,84)"/><path d=" M 178.864 504.925 C 180.984 504.925 183.039 504.063 184.497 502.605 C 185.955 501.147 186.816 499.093 186.816 496.972 C 186.816 494.851 185.955 492.797 184.497 491.339 C 183.039 489.881 180.984 489.019 178.864 489.019 C 176.743 489.019 174.689 489.881 173.231 491.339 C 171.773 492.797 170.911 494.851 170.911 496.972 C 170.911 499.093 171.773 501.147 173.231 502.605 C 174.755 504.063 176.743 504.925 178.864 504.925 Z " fill="rgb(255,199,84)"/></g></g><g><g><linearGradient id="_lgradient_3" x1="0.060719461725708995" y1="0.7349721746004497" x2="0.9680599624405665" y2="0.2876149264865544" gradientTransform="matrix(149.116,0,0,168.573,19.467,151.614)" gradientUnits="userSpaceOnUse"><stop offset="2.1739130434782608%" stop-opacity="1" style="stop-color:rgb(192,0,79)"/><stop offset="98.69565217391305%" stop-opacity="1" style="stop-color:rgb(243,102,91)"/></linearGradient><path d=" M 164.606 191.684 L 98.93 152.716 C 96.478 151.258 93.429 151.258 90.977 152.65 L 24.44 189.961 C 21.987 191.353 20.397 193.937 20.397 196.787 L 19.469 273.133 C 19.403 275.983 20.927 278.634 23.379 280.092 L 89.055 319.06 C 90.315 319.789 91.706 320.187 93.098 320.187 C 94.423 320.187 95.749 319.855 97.008 319.193 L 163.612 281.815 C 166.064 280.423 167.655 277.839 167.655 274.989 L 168.583 198.643 C 168.583 195.793 167.058 193.142 164.606 191.684 Z  M 85.278 298.383 L 35.441 268.825 L 36.17 210.969 L 86.007 240.461 L 85.278 298.383 Z  M 94.092 226.742 L 44.123 197.185 L 94.755 168.754 L 144.724 198.378 L 94.092 226.742 Z  M 151.749 270.217 L 101.183 298.582 L 101.912 240.593 L 152.478 212.295 L 151.749 270.217 Z " fill="url(#_lgradient_3)"/><path d=" M 192.241 282.142 C 188.463 279.889 183.625 281.082 181.306 284.793 C 179.053 288.57 180.246 293.408 183.957 295.728 C 185.282 296.523 186.674 296.855 188.066 296.855 C 190.783 296.855 193.368 295.463 194.892 293.011 C 197.211 289.299 196.018 284.395 192.241 282.142 Z " fill="rgb(192,0,79)"/><path d=" M 221.732 299.969 C 217.955 297.716 213.117 298.909 210.797 302.687 C 208.544 306.464 209.737 311.302 213.448 313.622 C 214.774 314.417 216.165 314.748 217.557 314.748 C 220.274 314.748 222.859 313.356 224.383 310.904 C 226.636 307.127 225.443 302.223 221.732 299.969 Z " fill="rgb(192,0,79)"/><path d=" M 252.615 318.99 C 251.157 317.532 249.103 316.67 246.982 316.67 C 244.861 316.67 242.807 317.532 241.349 318.99 C 239.891 320.448 239.029 322.502 239.029 324.623 C 239.029 326.744 239.891 328.798 241.349 330.256 C 242.807 331.714 244.861 332.576 246.982 332.576 C 249.037 332.576 251.157 331.714 252.615 330.256 C 254.073 328.798 254.935 326.744 254.935 324.623 C 255.001 322.502 254.14 320.448 252.615 318.99 Z " fill="rgb(192,0,79)"/><path d=" M -6.312 279.292 C -10.156 281.413 -11.481 286.317 -9.361 290.095 C -7.903 292.679 -5.185 294.137 -2.402 294.137 C -1.076 294.137 0.249 293.806 1.508 293.143 C 5.352 290.956 6.677 286.118 4.557 282.341 C 2.37 278.497 -2.468 277.172 -6.312 279.292 Z " fill="rgb(192,0,79)"/><path d=" M -36.068 295.993 C -39.912 298.114 -41.238 303.018 -39.117 306.795 C -37.659 309.38 -34.942 310.838 -32.158 310.838 C -30.833 310.838 -29.507 310.507 -28.248 309.844 C -24.404 307.657 -23.079 302.819 -25.2 299.042 C -27.453 295.198 -32.291 293.872 -36.068 295.993 Z " fill="rgb(192,0,79)"/><path d=" M -62.047 311.7 C -64.168 311.7 -66.222 312.561 -67.68 314.019 C -69.138 315.477 -70 317.532 -70 319.652 C -70 321.773 -69.138 323.828 -67.68 325.286 C -66.222 326.744 -64.168 327.605 -62.047 327.605 C -59.927 327.605 -57.872 326.744 -56.414 325.286 C -54.956 323.828 -54.095 321.773 -54.095 319.652 C -54.095 317.532 -54.956 315.477 -56.414 314.019 C -57.872 312.561 -59.927 311.7 -62.047 311.7 Z " fill="rgb(192,0,79)"/><path d=" M 94.025 136.21 C 98.399 136.21 101.978 132.631 101.978 128.257 C 101.978 123.883 98.399 120.304 94.025 120.304 C 89.651 120.304 86.072 123.883 86.072 128.257 C 86.072 132.631 89.585 136.21 94.025 136.21 Z " fill="rgb(192,0,79)"/><path d=" M 94.025 108.707 L 94.025 108.707 C 98.399 108.707 101.978 105.128 101.978 100.754 C 101.978 96.38 98.399 92.801 94.025 92.801 C 89.651 92.801 86.072 96.38 86.072 100.754 C 86.072 105.128 89.585 108.707 94.025 108.707 Z " fill="rgb(192,0,79)"/><path d=" M 94.025 81.137 C 98.399 81.137 101.978 77.558 101.978 73.184 C 101.978 68.81 98.399 65.232 94.025 65.232 C 89.651 65.232 86.072 68.81 86.072 73.184 C 86.072 77.625 89.651 81.137 94.025 81.137 Z " fill="rgb(192,0,79)"/><path d=" M 94.025 53.634 C 96.146 53.634 98.2 52.772 99.658 51.314 C 101.116 49.856 101.978 47.802 101.978 45.681 C 101.978 43.56 101.116 41.506 99.658 40.048 C 98.2 38.59 96.146 37.728 94.025 37.728 C 91.904 37.728 89.85 38.59 88.392 40.048 C 86.934 41.506 86.072 43.56 86.072 45.681 C 86.072 47.802 86.934 49.856 88.392 51.314 C 89.916 52.772 91.904 53.634 94.025 53.634 Z " fill="rgb(192,0,79)"/></g></g><g><g><path d=" M 1037.303 295.524 C 1033.525 293.271 1028.687 294.464 1026.368 298.175 C 1024.114 301.953 1025.307 306.791 1029.018 309.11 C 1030.344 309.905 1031.736 310.237 1033.127 310.237 C 1035.845 310.237 1038.429 308.845 1039.953 306.393 C 1042.273 302.682 1041.08 297.777 1037.303 295.524 Z " fill="rgb(255,199,84)"/><path d=" M 1066.794 313.352 C 1063.016 311.098 1058.178 312.291 1055.859 316.069 C 1053.606 319.846 1054.798 324.684 1058.51 327.004 C 1059.835 327.799 1061.227 328.13 1062.619 328.13 C 1065.336 328.13 1067.92 326.739 1069.445 324.287 C 1071.698 320.509 1070.505 315.605 1066.794 313.352 Z " fill="rgb(255,199,84)"/><path d=" M 1097.677 332.372 C 1096.219 330.914 1094.164 330.052 1092.044 330.052 C 1089.923 330.052 1087.869 330.914 1086.411 332.372 C 1084.953 333.83 1084.091 335.884 1084.091 338.005 C 1084.091 340.126 1084.953 342.18 1086.411 343.638 C 1087.869 345.096 1089.923 345.958 1092.044 345.958 C 1094.098 345.958 1096.219 345.096 1097.677 343.638 C 1099.135 342.18 1099.996 340.126 1099.996 338.005 C 1100.063 335.884 1099.201 333.83 1097.677 332.372 Z " fill="rgb(255,199,84)"/><path d=" M 838.75 292.674 C 834.906 294.795 833.58 299.699 835.701 303.477 C 837.159 306.062 839.876 307.52 842.66 307.52 C 843.985 307.52 845.311 307.188 846.57 306.525 C 850.414 304.338 851.739 299.501 849.618 295.723 C 847.431 291.879 842.593 290.554 838.75 292.674 Z " fill="rgb(255,199,84)"/><path d=" M 808.993 309.375 C 805.149 311.496 803.824 316.4 805.945 320.178 C 807.403 322.762 810.12 324.22 812.903 324.22 C 814.229 324.22 815.554 323.889 816.813 323.226 C 820.657 321.039 821.983 316.201 819.862 312.424 C 817.609 308.58 812.771 307.254 808.993 309.375 Z " fill="rgb(255,199,84)"/><path d=" M 783.014 325.082 C 780.894 325.082 778.839 325.943 777.381 327.401 C 775.923 328.859 775.062 330.914 775.062 333.035 C 775.062 335.155 775.923 337.21 777.381 338.668 C 778.839 340.126 780.894 340.987 783.014 340.987 C 785.135 340.987 787.19 340.126 788.648 338.668 C 790.106 337.21 790.967 335.155 790.967 333.035 C 790.967 330.914 790.106 328.859 788.648 327.401 C 787.19 325.943 785.135 325.082 783.014 325.082 Z " fill="rgb(255,199,84)"/><path d=" M 939.086 149.592 C 943.46 149.592 947.039 146.013 947.039 141.639 C 947.039 137.265 943.46 133.686 939.086 133.686 C 934.712 133.686 931.134 137.265 931.134 141.639 C 931.134 146.013 934.646 149.592 939.086 149.592 Z " fill="rgb(255,199,84)"/><path d=" M 939.086 122.089 L 939.086 122.089 C 943.46 122.089 947.039 118.51 947.039 114.136 C 947.039 109.762 943.46 106.183 939.086 106.183 C 934.712 106.183 931.134 109.762 931.134 114.136 C 931.134 118.51 934.646 122.089 939.086 122.089 Z " fill="rgb(255,199,84)"/><path d=" M 939.086 94.519 C 943.46 94.519 947.039 90.941 947.039 86.567 C 947.039 82.193 943.46 78.614 939.086 78.614 C 934.712 78.614 931.134 82.193 931.134 86.567 C 931.134 91.007 934.712 94.519 939.086 94.519 Z " fill="rgb(255,199,84)"/><path d=" M 939.086 67.016 C 941.207 67.016 943.262 66.155 944.72 64.697 C 946.178 63.239 947.039 61.184 947.039 59.063 C 947.039 56.943 946.178 54.888 944.72 53.43 C 943.262 51.972 941.207 51.111 939.086 51.111 C 936.966 51.111 934.911 51.972 933.453 53.43 C 931.995 54.888 931.134 56.943 931.134 59.063 C 931.134 61.184 931.995 63.239 933.453 64.697 C 934.978 66.155 936.966 67.016 939.086 67.016 Z " fill="rgb(255,199,84)"/></g></g><linearGradient id="_lgradient_4" x1="-0.017371293456572956" y1="0.9060205431716559" x2="1.0013621940491428" y2="0.28059756688693505" gradientTransform="matrix(149.116,0,0,168.573,441.551,1.057)" gradientUnits="userSpaceOnUse"><stop offset="0%" stop-opacity="1" style="stop-color:rgb(0,139,207)"/><stop offset="97.82608695652173%" stop-opacity="1" style="stop-color:rgb(255,199,84)"/></linearGradient><path d=" M 586.69 41.127 L 521.014 2.159 C 518.562 0.701 515.514 0.701 513.062 2.093 L 446.524 39.404 C 444.072 40.796 442.481 43.381 442.481 46.23 L 441.553 122.577 C 441.487 125.426 443.011 128.077 445.463 129.535 L 511.14 168.504 C 512.399 169.233 513.791 169.63 515.182 169.63 C 516.508 169.63 517.833 169.299 519.092 168.636 L 585.696 131.258 C 588.148 129.867 589.739 127.282 589.739 124.432 L 590.667 48.086 C 590.667 45.236 589.143 42.585 586.69 41.127 Z  M 507.362 147.826 L 457.525 118.269 L 458.254 60.413 L 508.091 89.904 L 507.362 147.826 Z  M 516.176 76.186 L 466.207 46.628 L 516.839 18.197 L 566.809 47.821 L 516.176 76.186 Z  M 573.834 119.661 L 523.267 148.025 L 523.748 109.796 L 523.996 90.037 L 574.563 61.738 L 573.834 119.661 Z " fill="url(#_lgradient_4)"/><linearGradient id="_lgradient_5" x1="-0.017371293456572956" y1="0.9060205431716559" x2="1.0013621940491428" y2="0.28059756688693505" gradientTransform="matrix(149.116,0,0,168.573,862.973,164.003)" gradientUnits="userSpaceOnUse"><stop offset="0%" stop-opacity="1" style="stop-color:rgb(0,139,207)"/><stop offset="97.82608695652173%" stop-opacity="1" style="stop-color:rgb(255,199,84)"/></linearGradient><path d=" M 1008.112 204.073 L 942.436 165.105 C 939.984 163.647 936.935 163.647 934.483 165.038 L 867.946 202.35 C 865.493 203.741 863.903 206.326 863.903 209.176 L 862.975 285.522 C 862.909 288.372 864.433 291.023 866.885 292.481 L 932.561 331.449 C 933.821 332.178 935.212 332.576 936.604 332.576 C 937.929 332.576 939.255 332.244 940.514 331.581 L 1007.118 294.204 C 1009.57 292.812 1011.161 290.227 1011.161 287.378 L 1012.089 211.031 C 1012.089 208.182 1010.564 205.531 1008.112 204.073 Z  M 928.784 310.772 L 878.947 281.214 L 879.676 223.358 L 929.513 252.85 L 928.784 310.772 Z  M 937.598 239.131 L 887.629 209.573 L 938.261 181.143 L 988.23 210.766 L 937.598 239.131 Z  M 995.255 282.606 L 944.689 310.971 L 945.418 252.982 L 995.984 224.684 L 995.255 282.606 Z " fill="url(#_lgradient_5)"/><linearGradient id="_lgradient_6" x1="-0.017371293456572956" y1="0.9060205431716559" x2="1.0013621940491428" y2="0.28059756688693505" gradientTransform="matrix(149.116,0,0,168.573,777.025,597.702)" gradientUnits="userSpaceOnUse"><stop offset="0%" stop-opacity="1" style="stop-color:rgb(0,139,207)"/><stop offset="97.82608695652173%" stop-opacity="1" style="stop-color:rgb(255,199,84)"/></linearGradient><path d=" M 922.164 637.772 L 856.488 598.804 C 854.036 597.346 850.988 597.346 848.535 598.737 L 781.998 636.049 C 779.546 637.441 777.955 640.025 777.955 642.875 L 777.027 719.221 C 776.961 722.071 778.485 724.722 780.937 726.18 L 846.614 765.148 C 847.873 765.877 849.264 766.275 850.656 766.275 C 851.982 766.275 853.307 765.943 854.566 765.281 L 921.17 727.903 C 923.622 726.511 925.213 723.926 925.213 721.077 L 926.141 644.731 C 926.141 641.881 924.616 639.23 922.164 637.772 Z  M 842.836 744.471 L 792.999 714.913 L 793.728 657.057 L 843.565 686.549 L 842.836 744.471 Z  M 851.65 672.83 L 801.681 643.273 L 852.313 614.842 L 902.283 644.466 L 851.65 672.83 Z  M 909.307 716.305 L 858.741 744.67 L 859.47 686.681 L 910.036 658.383 L 909.307 716.305 Z " fill="url(#_lgradient_6)"/></g></g></svg>