<svg xmlns="http://www.w3.org/2000/svg" style="isolation:isolate" viewBox="89 135 692 489.92" width="692pt" height="653.227"><defs><clipPath id="a"><path d="M89 135h692v489.92H89z"/></clipPath></defs><g clip-path="url(#a)"><path d="M219.142 505.073l22.01 13.216 27.109-16.279-49.119-29.487v32.55z" fill="#ED69B7"/><path d="M190.181 472.523l-49.12 29.487 27.109 16.279 22.011-13.216v-32.55z" fill="#C84696"/><path d="M321.46 611.975l-6.075-22.675a4.828 4.828 0 00-9.325 2.498l3.228 12.049-99.8-60.737V431.479l8.36 8.36a4.812 4.812 0 003.413 1.414 4.827 4.827 0 003.413-8.24l-16.6-16.6a4.81 4.81 0 00-3.412-1.413 4.812 4.812 0 00-3.413 1.413l-16.6 16.6a4.827 4.827 0 106.826 6.826l8.36-8.36V543.11l-98.24 59.775 2.971-11.088a4.826 4.826 0 10-9.325-2.498l-6.076 22.675a4.824 4.824 0 003.134 5.822c.082.031.173.061.28.089l22.675 6.076a4.83 4.83 0 005.912-3.414 4.825 4.825 0 00-3.413-5.911l-11.733-3.144 98.641-60.021 99.027 60.267-10.815 2.898a4.826 4.826 0 00-3.413 5.911 4.83 4.83 0 005.912 3.414l22.676-6.076c.121-.032.223-.067.315-.102a4.82 4.82 0 003.097-5.808z" fill="#FF9650"/><path d="M248.657 555.646l24.153 14.699v-59.809l-24.153 14.504v30.606z" fill="#ED69B7"/><path d="M209.488 592.369v32.551l48.974-29.403-26.926-16.387-22.048 13.239zm-58.634 3.145l48.98 29.406v-32.551l-22.052-13.241-26.928 16.386z" fill="#A41F76"/><path d="M160.664 525.04l-24.152-14.504v59.803l24.152-14.696V525.04zm9.654 24.729l19.863-12.086v-21.349l-19.526 11.723-.337.205v21.507z" fill="#C84696"/><path d="M219.142 537.683l19.862 12.088v-21.509l-.338-.205-19.524-11.723v21.349z" fill="#ED69B7"/><path d="M204.66 562.774l-17.562 10.686 17.563 10.546 17.561-10.545-17.562-10.687z" fill="#A41F76"/><path d="M496.102 155.513c-13.47-13.369-31.337-20.646-50.33-20.511-38.545.289-70.008 31.887-70.137 70.437-.062 18.707 7.114 36.364 20.208 49.717 12.036 12.276 18.665 28.465 18.665 45.59v10.826c0 7.352 5.088 13.535 11.927 15.222v2.448c0 8.644 7.033 15.678 15.678 15.678h8.4c8.645 0 15.678-7.034 15.678-15.678v-2.448c6.84-1.686 11.927-7.87 11.927-15.222v-10.826c0-17.011 6.7-33.523 18.381-45.301 13.215-13.325 20.492-31 20.492-49.767.001-18.978-7.418-36.794-20.889-50.165zm-45.589 180.572h-8.4a6.851 6.851 0 01-6.843-6.843v-1.991h22.087v1.991c-.001 3.773-3.071 6.843-6.844 6.843zm18.771-24.513a6.852 6.852 0 01-6.844 6.844h-32.254c-3.773 0-6.843-3.071-6.843-6.844v-6.408h45.941v6.408zm20.942-62.348c-12.292 12.394-19.743 29.361-20.809 47.105h-9.852v-33.831l6.175-7.986a4.419 4.419 0 00-.792-6.197 4.42 4.42 0 00-6.197.793l-7.098 9.179a4.42 4.42 0 00-.923 2.702v35.339h-8.834v-35.339c0-.977-.325-1.928-.923-2.702l-18.554-23.994a4.417 4.417 0 00-6.989 5.404l17.631 22.801v33.83h-9.849c-1.049-17.803-8.434-34.479-21.061-47.357-11.457-11.685-17.736-27.134-17.681-43.503.112-33.731 27.641-61.379 61.368-61.631 16.606-.11 32.254 6.249 44.04 17.947 11.787 11.699 18.279 27.287 18.279 43.894 0 16.422-6.368 31.886-17.931 43.546z" fill="#008BCF"/><path d="M476.402 233.5a4.417 4.417 0 00-6.196.793l-.112.146a4.417 4.417 0 106.989 5.403l.113-.145a4.417 4.417 0 00-.794-6.197zm12.694-36.413l-20.081-17.169a4.418 4.418 0 00-5.742 6.715l16.155 13.812-16.155 13.811a4.418 4.418 0 005.741 6.715l20.082-17.168a4.416 4.416 0 000-6.716zm-58.372-16.682a4.417 4.417 0 00-6.228-.487l-20.082 17.169a4.416 4.416 0 000 6.715l20.082 17.169a4.401 4.401 0 002.868 1.059 4.417 4.417 0 002.873-7.774l-16.155-13.812 16.155-13.812a4.417 4.417 0 00.487-6.227zm22.035-8.132a4.42 4.42 0 00-5.242 3.4l-10.166 47.702a4.418 4.418 0 008.641 1.841l10.166-47.702a4.417 4.417 0 00-3.399-5.241z" fill="#00AA96"/><path d="M769.321 502.985a94.55 94.55 0 00-4.041-15.056l10.121-5.843-16.935-29.332-10.138 5.853a96.063 96.063 0 00-11.011-11.012l5.853-10.137-29.333-16.936-5.842 10.121a94.722 94.722 0 00-15.06-4.044V414.92h-33.87v11.679a94.55 94.55 0 00-15.056 4.041l-5.843-10.121-29.332 16.935 5.853 10.138a96.063 96.063 0 00-11.012 11.011l-10.141-5.849-16.935 29.332 10.121 5.843a94.87 94.87 0 00-4.041 15.056H571v33.87h11.679a94.55 94.55 0 004.041 15.056l-10.121 5.843 16.935 29.332 10.138-5.853a96.063 96.063 0 0011.011 11.012l-5.853 10.137 29.333 16.936 5.842-10.121a94.55 94.55 0 0015.056 4.041v11.682h33.871v-11.679a94.55 94.55 0 0015.056-4.041l5.842 10.121 29.333-16.935-5.853-10.138a96.054 96.054 0 0011.011-11.011l10.138 5.853 16.935-29.333-10.12-5.842a94.763 94.763 0 004.041-15.056H781v-33.874h-11.679zm4.905 27.096h-10.7l-.43 2.893a87.5 87.5 0 01-5.152 19.195l-1.067 2.716 9.267 5.348-10.161 17.596-9.281-5.355-1.819 2.28a88.685 88.685 0 01-14.046 14.046l-2.279 1.819 5.355 9.281-17.596 10.161-5.352-9.267-2.716 1.067a87.608 87.608 0 01-19.195 5.151l-2.893.434v10.7h-20.322v-10.7l-2.893-.43a87.5 87.5 0 01-19.195-5.152l-2.716-1.067-5.352 9.267-17.596-10.161 5.355-9.281-2.279-1.819a88.643 88.643 0 01-14.046-14.046l-1.819-2.279-9.281 5.355-10.161-17.596 9.267-5.352-1.067-2.716a87.666 87.666 0 01-5.152-19.195l-.43-2.893h-10.7v-20.322h10.7l.43-2.893a87.5 87.5 0 015.152-19.195l1.067-2.716-9.267-5.352 10.161-17.596 9.281 5.355 1.819-2.279a88.643 88.643 0 0114.046-14.046l2.279-1.819-5.355-9.281 17.596-10.161 5.352 9.267 2.716-1.067a87.666 87.666 0 0119.195-5.152l2.893-.43v-10.7h20.322v10.7l2.893.43a87.5 87.5 0 0119.195 5.152l2.716 1.067 5.352-9.267 17.596 10.161-5.355 9.281 2.279 1.819a88.643 88.643 0 0114.046 14.046l1.819 2.279 9.281-5.355 10.161 17.596-9.267 5.352 1.067 2.716a87.666 87.666 0 015.152 19.195l.43 2.893h10.7v20.322z" fill="#C0004F"/><path fill="#00AA96" d="M672.613 570.726h6.774v6.774h-6.774zm0 27.097h6.774v6.774h-6.774z"/><path d="M611.645 487.238v72.142l60.968 27.1v4.569h6.774v-4.573l60.968-27.1v-72.138L676 458.634l-64.355 28.604zm84.678 32.682c0 6.622-3.259 12.854-8.712 16.668l-1.45 1.009v6.033h-6.774v-14.172c3.933-1.402 6.774-5.128 6.774-9.538 0-5.602-4.559-10.161-10.161-10.161-5.602 0-10.161 4.559-10.161 10.161 0 4.41 2.841 8.136 6.774 9.538v14.172h-6.774v-6.033l-1.45-1.009c-5.453-3.814-8.712-10.046-8.712-16.668 0-11.208 9.115-20.323 20.323-20.323s20.323 9.115 20.323 20.323zm-10.162 30.484v6.774h-20.322v-6.774h20.322zm-13.548-30.484a3.388 3.388 0 116.776.002 3.388 3.388 0 01-6.776-.002zm0-52.368v25.505c-7.293.914-13.681 4.735-17.989 10.266l-31.253-13.887 49.242-21.884zm60.968 87.428L676 580.566l-57.581-25.59v-60.327l32.71 14.537a26.97 26.97 0 00-2.226 10.734c0 8.234 3.767 16.004 10.162 21.135v2.575h-6.775v6.774h6.775v13.548h33.87v-13.548h6.775v-6.774h-6.775v-2.575c6.395-5.134 10.162-12.904 10.162-21.135 0-3.81-.8-7.438-2.226-10.734l32.71-14.537v60.331zm-54.194-87.428l49.242 21.884-31.253 13.891c-4.308-5.535-10.696-9.352-17.989-10.27v-25.505z" fill="#008BCF"/><linearGradient id="b" x1=".5" y1="1" x2=".5" y2="0" gradientTransform="rotate(135 261.41 322.16) scale(102.87699 188.609)" gradientUnits="userSpaceOnUse"><stop offset="1.739%" stop-color="#f3665b"/><stop offset="99.13%" stop-color="#ffc754"/></linearGradient><path d="M623.048 334.806v39.924L516.441 268.123a8.573 8.573 0 10-12.124 12.124l106.607 106.607H571a8.544 8.544 0 00-6.062 2.511A8.573 8.573 0 00571 404h60.621a8.573 8.573 0 008.573-8.573v-60.621a8.574 8.574 0 00-17.146 0z" fill="url(#b)"/><linearGradient id="c" x1=".5" y1="1" x2=".5" y2="0" gradientTransform="matrix(0 -102.877 188.609 0 340.391 577)" gradientUnits="userSpaceOnUse"><stop offset="1.304%" stop-color="#ffc754"/><stop offset="98.696%" stop-color="#a41f76"/></linearGradient><path d="M397.892 562.365l-28.231-28.231h150.766a8.573 8.573 0 008.573-8.573 8.573 8.573 0 00-8.573-8.573H369.661l28.231-28.231a8.543 8.543 0 002.511-6.062 8.542 8.542 0 00-2.511-6.061 8.573 8.573 0 00-12.124 0l-42.866 42.865a8.573 8.573 0 000 12.124l42.866 42.866a8.573 8.573 0 1012.124-12.124z" fill="url(#c)"/><linearGradient id="d" x1=".5" y1="1" x2=".5" y2="0" gradientTransform="rotate(45 -124.65 527.87) scale(102.87699 188.609)" gradientUnits="userSpaceOnUse"><stop offset="1.304%" stop-color="#a41f76"/><stop offset="98.696%" stop-color="#f3665b"/></linearGradient><path d="M306.44 293.757h39.925L239.757 400.365a8.573 8.573 0 1012.124 12.124l106.608-106.607v39.924a8.543 8.543 0 002.51 6.062 8.573 8.573 0 0014.635-6.062v-60.622a8.573 8.573 0 00-8.573-8.573H306.44a8.574 8.574 0 000 17.146z" fill="url(#d)"/></g></svg>