<svg xmlns="http://www.w3.org/2000/svg" style="isolation:isolate" viewBox="593 230 512 496" width="512pt" height="496pt"><defs><clipPath id="a"><path d="M593 230h512v496H593z"/></clipPath></defs><g clip-path="url(#a)"><linearGradient id="b" x1=".152" y1=".207" x2=".729" y2=".913" gradientTransform="matrix(496 0 0 320 609 318)" gradientUnits="userSpaceOnUse"><stop offset=".87%" stop-color="#a41f76"/><stop offset="98.261%" stop-color="#ff9650"/></linearGradient><path d="M995.256 397.84C967.512 350.184 916 318 857 318s-110.512 32.184-138.256 79.84C648.984 415.512 609 444.624 609 478c0 33.824 43.04 63.04 109.52 80.088C747.104 607.416 799.944 638 857 638c56.976 0 109.944-30.608 138.512-79.92C1061.976 541.032 1105 511.824 1105 478c0-33.376-39.992-62.488-109.744-80.16zM857 334c79.4 0 144 64.6 144 144 0 7.384-.728 14.744-1.84 22.016C968.832 509.952 919.584 518 857 518c-17.304 0-33.472-.664-48.632-1.768.32-2.056.632-4.12.632-6.232 0-22.056-17.944-40-40-40-20.112 0-36.64 14.968-39.424 34.32a236.862 236.862 0 01-14.728-4.304C713.728 492.744 713 485.384 713 478c0-79.4 64.6-144 144-144zm-64 176c0 1.656-.168 3.288-.488 4.872-17.616-1.76-33.464-4.16-47.296-7C746.312 495.648 756.496 486 769 486c13.232 0 24 10.768 24 24zm88.216 109.856C882.32 607.64 892.496 598 905 598c6.912 0 13.336 3 17.816 7.96a143.954 143.954 0 01-41.6 13.896zm55.528-22.04C929.272 588.04 917.632 582 905 582c-21.96 0-39.824 17.8-39.976 39.728-2.664.152-5.336.272-8.024.272-46.088 0-89.12-22.184-116.056-58.824C775.392 570.096 814.792 574 857 574c42.2 0 81.584-3.904 116.032-10.816-10.08 13.696-22.384 25.392-36.288 34.632zM857 558c-138.776 0-232-41.368-232-80 0-22.816 31.84-45.544 84.12-60.936a158.564 158.564 0 00-8.432 27.056C677.096 453.416 665 464.784 665 478c0 36.768 96.584 56 192 56s192-19.232 192-56c0-13.216-12.104-24.584-35.688-33.88a158.255 158.255 0 00-8.432-27.048c52.28 15.384 84.12 38.12 84.12 60.928 0 38.632-93.224 80-232 80zm-159.256-64.704C686.928 488.08 681 482.728 681 478c0-3.52 4.68-9.168 16.768-15.176-.472 5-.768 10.056-.768 15.176 0 5.104.264 10.216.744 15.296zm318.488-30.464c12.088 6 16.768 11.648 16.768 15.168 0 4.728-5.928 10.08-16.736 15.288.488-5.08.736-10.184.736-15.288 0-5.12-.296-10.176-.768-15.168z" fill="url(#b)"/><path d="M801 414c13.232 0 24-10.768 24-24s-10.768-24-24-24-24 10.768-24 24 10.768 24 24 24zm0-32c4.416 0 8 3.584 8 8s-3.584 8-8 8-8-3.584-8-8 3.584-8 8-8z" fill="#FF9650"/><path d="M913 470c17.648 0 32-14.352 32-32s-14.352-32-32-32-32 14.352-32 32 14.352 32 32 32zm0-48c8.824 0 16 7.176 16 16s-7.176 16-16 16-16-7.176-16-16 7.176-16 16-16z" fill="#A41F76"/><linearGradient id="c" x1="0" y1=".5" x2=".99" y2=".033" gradientTransform="matrix(16 0 0 16 825 230)" gradientUnits="userSpaceOnUse"><stop offset="0%" stop-color="#ff9650"/><stop offset="97.391%" stop-color="#f9f871"/></linearGradient><path fill="url(#c)" d="M825 230h16v16h-16z"/><linearGradient id="d" x1=".066" y1="1" x2=".988" y2=".019" gradientTransform="matrix(16 0 0 16 825 262)" gradientUnits="userSpaceOnUse"><stop offset="0%" stop-color="#ff9650"/><stop offset="97.391%" stop-color="#f9f871"/></linearGradient><path fill="url(#d)" d="M825 262h16v16h-16z"/><linearGradient id="e" x1="0" y1=".5" x2=".99" y2=".033" gradientTransform="matrix(16 0 0 16 841 246)" gradientUnits="userSpaceOnUse"><stop offset="0%" stop-color="#ff9650"/><stop offset="97.391%" stop-color="#f9f871"/></linearGradient><path fill="url(#e)" d="M841 246h16v16h-16z"/><linearGradient id="f" x1="0" y1=".5" x2=".99" y2=".033" gradientTransform="matrix(16 0 0 16 809 246)" gradientUnits="userSpaceOnUse"><stop offset="0%" stop-color="#ff9650"/><stop offset="97.391%" stop-color="#f9f871"/></linearGradient><path fill="url(#f)" d="M809 246h16v16h-16z"/><linearGradient id="g" x1="0" y1=".5" x2=".99" y2=".033" gradientTransform="matrix(16 0 0 16 1073 318)" gradientUnits="userSpaceOnUse"><stop offset="0%" stop-color="#ff9650"/><stop offset="97.391%" stop-color="#f9f871"/></linearGradient><path fill="url(#g)" d="M1073 318h16v16h-16z"/><linearGradient id="h" x1=".066" y1="1" x2=".988" y2=".019" gradientTransform="matrix(16 0 0 16 1073 350)" gradientUnits="userSpaceOnUse"><stop offset="0%" stop-color="#ff9650"/><stop offset="97.391%" stop-color="#f9f871"/></linearGradient><path fill="url(#h)" d="M1073 350h16v16h-16z"/><linearGradient id="i" x1="0" y1=".5" x2=".99" y2=".033" gradientTransform="matrix(16 0 0 16 1089 334)" gradientUnits="userSpaceOnUse"><stop offset="0%" stop-color="#ff9650"/><stop offset="97.391%" stop-color="#f9f871"/></linearGradient><path fill="url(#i)" d="M1089 334h16v16h-16z"/><linearGradient id="j" x1="0" y1=".5" x2=".99" y2=".033" gradientTransform="matrix(16 0 0 16 1057 334)" gradientUnits="userSpaceOnUse"><stop offset="0%" stop-color="#ff9650"/><stop offset="97.391%" stop-color="#f9f871"/></linearGradient><path fill="url(#j)" d="M1057 334h16v16h-16z"/><linearGradient id="k" x1="0" y1=".5" x2="1" y2=".5" gradientTransform="matrix(16 0 0 16 929 678)" gradientUnits="userSpaceOnUse"><stop offset=".87%" stop-color="#008bcf"/><stop offset="98.696%" stop-color="#00aa96"/></linearGradient><path fill="url(#k)" d="M929 678h16v16h-16z"/><linearGradient id="l" x1=".916" y1=".828" x2=".014" y2=".2" gradientTransform="matrix(16 0 0 16 929 710)" gradientUnits="userSpaceOnUse"><stop offset=".87%" stop-color="#008bcf"/><stop offset="98.696%" stop-color="#00aa96"/></linearGradient><path fill="url(#l)" d="M929 710h16v16h-16z"/><linearGradient id="m" x1=".417" y1=".329" x2=".65" y2=".779" gradientTransform="matrix(16 0 0 16 945 694)" gradientUnits="userSpaceOnUse"><stop offset=".87%" stop-color="#008bcf"/><stop offset="98.696%" stop-color="#00aa96"/></linearGradient><path fill="url(#m)" d="M945 694h16v16h-16z"/><linearGradient id="n" x1=".256" y1=".687" x2=".579" y2=".454" gradientTransform="matrix(16 0 0 16 913 694)" gradientUnits="userSpaceOnUse"><stop offset=".87%" stop-color="#008bcf"/><stop offset="98.696%" stop-color="#00aa96"/></linearGradient><path fill="url(#n)" d="M913 694h16v16h-16z"/><linearGradient id="o" x1="0" y1=".5" x2="1" y2=".5" gradientTransform="matrix(16 0 0 16 609 310)" gradientUnits="userSpaceOnUse"><stop offset=".87%" stop-color="#008bcf"/><stop offset="98.696%" stop-color="#00aa96"/></linearGradient><path fill="url(#o)" d="M609 310h16v16h-16z"/><linearGradient id="p" x1=".916" y1=".828" x2=".014" y2=".2" gradientTransform="matrix(16 0 0 16 609 342)" gradientUnits="userSpaceOnUse"><stop offset=".87%" stop-color="#008bcf"/><stop offset="98.696%" stop-color="#00aa96"/></linearGradient><path fill="url(#p)" d="M609 342h16v16h-16z"/><linearGradient id="q" x1=".417" y1=".329" x2=".65" y2=".779" gradientTransform="matrix(16 0 0 16 625 326)" gradientUnits="userSpaceOnUse"><stop offset=".87%" stop-color="#008bcf"/><stop offset="98.696%" stop-color="#00aa96"/></linearGradient><path fill="url(#q)" d="M625 326h16v16h-16z"/><linearGradient id="r" x1=".256" y1=".687" x2=".579" y2=".454" gradientTransform="matrix(16 0 0 16 593 326)" gradientUnits="userSpaceOnUse"><stop offset=".87%" stop-color="#008bcf"/><stop offset="98.696%" stop-color="#00aa96"/></linearGradient><path fill="url(#r)" d="M593 326h16v16h-16z"/><path fill="#FF7DCB" d="M873 278h16v16h-16zm136-32h16v16h-16zM609 582h16v16h-16z"/><path fill="#F3665B" d="M793 678h16v16h-16zm-80-416h16v16h-16zm328 400h16v16h-16z"/><linearGradient id="s" x1="0" y1=".5" x2=".99" y2=".033" gradientTransform="matrix(16 0 0 16 1012 582)" gradientUnits="userSpaceOnUse"><stop offset="0%" stop-color="#ff9650"/><stop offset="97.391%" stop-color="#f9f871"/></linearGradient><path fill="url(#s)" d="M1012 582h16v16h-16z"/><linearGradient id="t" x1=".066" y1="1" x2=".988" y2=".019" gradientTransform="matrix(16 0 0 16 1012 614)" gradientUnits="userSpaceOnUse"><stop offset="0%" stop-color="#ff9650"/><stop offset="97.391%" stop-color="#f9f871"/></linearGradient><path fill="url(#t)" d="M1012 614h16v16h-16z"/><linearGradient id="u" x1="0" y1=".5" x2=".99" y2=".033" gradientTransform="matrix(16 0 0 16 1028 598)" gradientUnits="userSpaceOnUse"><stop offset="0%" stop-color="#ff9650"/><stop offset="97.391%" stop-color="#f9f871"/></linearGradient><path fill="url(#u)" d="M1028 598h16v16h-16z"/><linearGradient id="v" x1="0" y1=".5" x2=".99" y2=".033" gradientTransform="matrix(16 0 0 16 996 598)" gradientUnits="userSpaceOnUse"><stop offset="0%" stop-color="#ff9650"/><stop offset="97.391%" stop-color="#f9f871"/></linearGradient><path fill="url(#v)" d="M996 598h16v16h-16z"/><linearGradient id="w" x1="0" y1=".5" x2=".99" y2=".033" gradientTransform="matrix(16 0 0 16 678 622)" gradientUnits="userSpaceOnUse"><stop offset="0%" stop-color="#ff9650"/><stop offset="97.391%" stop-color="#f9f871"/></linearGradient><path fill="url(#w)" d="M678 622h16v16h-16z"/><linearGradient id="x" x1=".066" y1="1" x2=".988" y2=".019" gradientTransform="matrix(16 0 0 16 678 654)" gradientUnits="userSpaceOnUse"><stop offset="0%" stop-color="#ff9650"/><stop offset="97.391%" stop-color="#f9f871"/></linearGradient><path fill="url(#x)" d="M678 654h16v16h-16z"/><linearGradient id="y" x1="0" y1=".5" x2=".99" y2=".033" gradientTransform="matrix(16 0 0 16 694 638)" gradientUnits="userSpaceOnUse"><stop offset="0%" stop-color="#ff9650"/><stop offset="97.391%" stop-color="#f9f871"/></linearGradient><path fill="url(#y)" d="M694 638h16v16h-16z"/><linearGradient id="z" x1="0" y1=".5" x2=".99" y2=".033" gradientTransform="matrix(16 0 0 16 662 638)" gradientUnits="userSpaceOnUse"><stop offset="0%" stop-color="#ff9650"/><stop offset="97.391%" stop-color="#f9f871"/></linearGradient><path fill="url(#z)" d="M662 638h16v16h-16z"/></g></svg>