<?xml version="1.0" encoding="UTF-8" standalone="no"?><!-- Generator: Gravit.io --><svg xmlns="http://www.w3.org/2000/svg" xmlns:xlink="http://www.w3.org/1999/xlink" style="isolation:isolate" viewBox="98 -156 647 557.759" width="647pt" height="557.759pt"><defs><clipPath id="_clipPath_llOGiLXxhr1WDinV1mehKByapFql891z"><rect x="98" y="-156" width="647" height="557.759"/></clipPath></defs><g clip-path="url(#_clipPath_llOGiLXxhr1WDinV1mehKByapFql891z)"><g><linearGradient id="_lgradient_2" x1="0.9752704791344671" y1="0.05703245749613628" x2="0.14997719055757164" y2="0.8563297904935695" gradientTransform="matrix(647,0,0,446.207,98,-44.448)" gradientUnits="userSpaceOnUse"><stop offset="0%" stop-opacity="1" style="stop-color:rgb(243,102,91)"/><stop offset="98.69565217391305%" stop-opacity="1" style="stop-color:rgb(255,199,84)"/></linearGradient><path d=" M 488.431 -44.448 L 488.431 7.836 C 488.431 15.924 481.872 22.483 473.784 22.483 L 369.205 22.483 C 361.128 22.483 354.569 15.924 354.569 7.836 L 354.569 -44.448 L 139.029 -44.448 C 116.373 -44.448 98 -26.076 98 -3.42 L 98 360.73 C 98 383.386 116.373 401.759 139.029 401.759 L 703.971 401.759 C 726.627 401.759 745 383.386 745 360.73 L 745 -3.42 C 745 -26.076 726.627 -44.448 703.971 -44.448 L 488.431 -44.448 Z " fill="url(#_lgradient_2)"/><path d=" M 473.784 -156 L 369.205 -156 C 361.128 -156 354.569 -149.441 354.569 -141.353 L 354.569 7.847 C 354.569 15.924 361.128 22.483 369.216 22.483 L 473.795 22.483 C 481.872 22.483 488.431 15.924 488.431 7.836 L 488.431 -141.353 C 488.431 -149.441 481.872 -156 473.784 -156 Z  M 421.5 -55.603 C 403.016 -55.603 388.034 -70.585 388.034 -89.069 C 388.034 -107.553 403.016 -122.534 421.5 -122.534 C 439.984 -122.534 454.966 -107.553 454.966 -89.069 C 454.966 -70.585 439.984 -55.603 421.5 -55.603 Z " fill="rgb(164,31,118)"/><linearGradient id="_lgradient_3" x1="0.1895929933024216" y1="0.33496575315139104" x2="0.9868718986912757" y2="0.9738188633588738" gradientTransform="matrix(200.793,0,0,290.237,164.931,44.781)" gradientUnits="userSpaceOnUse"><stop offset="0%" stop-opacity="1" style="stop-color:rgb(12,114,206)"/><stop offset="98.69565217391305%" stop-opacity="1" style="stop-color:rgb(0,187,251)"/></linearGradient><path d=" M 345.489 269.637 L 303.467 248.174 C 300.6 246.702 298.793 243.757 298.793 240.533 L 298.793 227.671 C 320.356 218.379 332.749 200.33 338.784 177.752 C 347.876 174.929 354.569 166.518 354.569 156.534 L 354.569 145.379 C 354.569 136.834 349.65 129.461 342.544 125.713 C 337.624 83.758 309.893 66.78 265.328 66.78 C 263.219 66.78 261.144 66.858 259.114 67.025 C 243.965 68.23 228.638 65.386 216.033 56.885 C 210.79 53.36 206.384 49.601 203.283 45.663 C 201.866 43.867 199.044 45.016 199.3 47.281 C 199.746 51.185 200.416 55.736 201.397 60.712 C 205.078 79.229 202.881 76.53 195.719 93.999 C 191.759 103.659 189.205 114.379 188.022 125.735 C 180.972 129.517 176.086 136.868 176.086 145.379 L 176.086 156.534 C 176.086 166.518 182.779 174.929 191.871 177.752 C 197.906 200.319 210.288 218.379 231.862 227.671 L 231.862 240.444 C 231.862 243.712 230.01 246.691 227.077 248.141 L 184.006 269.347 C 172.249 275.761 164.931 288.087 164.931 301.474 L 164.931 311.692 C 164.931 311.692 164.931 314.692 164.931 316.254 C 164.931 328.86 209.875 335.017 265.328 335.017 C 320.78 335.017 365.724 328.86 365.724 316.254 C 365.724 314.692 365.724 311.692 365.724 311.692 L 365.724 302.366 C 365.724 288.511 357.893 275.839 345.489 269.637 Z " fill="url(#_lgradient_3)"/><g><path d=" M 670.149 282.287 C 668.13 284.395 666.914 287.307 666.914 290.207 C 666.914 293.107 668.029 296.008 670.149 298.127 C 672.257 300.135 675.169 301.362 678.069 301.362 C 680.969 301.362 683.87 300.135 685.989 298.127 C 687.997 296.008 689.224 293.107 689.224 290.207 C 689.224 287.307 687.997 284.395 685.989 282.287 C 681.862 278.271 674.388 278.159 670.149 282.287 Z " fill="rgb(241,236,245)"/><path d=" M 432.655 111.925 L 544.207 111.925 C 550.376 111.925 555.362 106.939 555.362 100.77 C 555.362 94.601 550.376 89.615 544.207 89.615 L 432.655 89.615 C 426.486 89.615 421.5 94.601 421.5 100.77 C 421.5 106.939 426.486 111.925 432.655 111.925 Z " fill="rgb(241,236,245)"/><path d=" M 443.81 279.253 L 432.655 279.253 C 426.486 279.253 421.5 284.239 421.5 290.408 C 421.5 296.576 426.486 301.563 432.655 301.563 L 443.81 301.563 C 449.979 301.563 454.966 296.576 454.966 290.408 C 454.966 284.239 449.979 279.253 443.81 279.253 Z " fill="rgb(241,236,245)"/><path d=" M 510.741 279.253 L 488.431 279.253 C 482.262 279.253 477.276 284.239 477.276 290.408 C 477.276 296.576 482.262 301.563 488.431 301.563 L 510.741 301.563 C 516.91 301.563 521.897 296.576 521.897 290.408 C 521.897 284.239 516.91 279.253 510.741 279.253 Z " fill="rgb(241,236,245)"/><path d=" M 566.517 279.253 L 555.362 279.253 C 549.193 279.253 544.207 284.239 544.207 290.408 C 544.207 296.576 549.193 301.563 555.362 301.563 L 566.517 301.563 C 572.686 301.563 577.672 296.576 577.672 290.408 C 577.672 284.239 572.686 279.253 566.517 279.253 Z " fill="rgb(241,236,245)"/><path d=" M 633.448 279.253 L 611.138 279.253 C 604.969 279.253 599.983 284.239 599.983 290.408 C 599.983 296.576 604.969 301.563 611.138 301.563 L 633.448 301.563 C 639.617 301.563 644.603 296.576 644.603 290.408 C 644.603 284.239 639.617 279.253 633.448 279.253 Z " fill="rgb(241,236,245)"/><path d=" M 432.655 178.856 L 678.069 178.856 C 684.238 178.856 689.224 173.87 689.224 167.701 C 689.224 161.532 684.238 156.546 678.069 156.546 L 432.655 156.546 C 426.486 156.546 421.5 161.532 421.5 167.701 C 421.5 173.87 426.486 178.856 432.655 178.856 Z " fill="rgb(241,236,245)"/><path d=" M 678.069 223.477 L 432.655 223.477 C 426.486 223.477 421.5 228.463 421.5 234.632 C 421.5 240.801 426.486 245.787 432.655 245.787 L 678.069 245.787 C 684.238 245.787 689.224 240.801 689.224 234.632 C 689.224 228.463 684.238 223.477 678.069 223.477 Z " fill="rgb(241,236,245)"/></g></g></g></svg>