<svg xmlns="http://www.w3.org/2000/svg" style="isolation:isolate" viewBox="567.269 270.957 473.597 386.043" width="631.463" height="514.724"><defs><clipPath id="a"><path d="M567.269 270.957h473.597V657H567.269z"/></clipPath></defs><g clip-path="url(#a)"><path d="M805 528.461c6.449 0 11.685 5.236 11.685 11.685 0 6.45-5.236 11.686-11.685 11.686-6.449 0-11.685-5.236-11.685-11.686 0-6.449 5.236-11.685 11.685-11.685zm0 52.584c6.449 0 11.685 5.236 11.685 11.685 0 6.45-5.236 11.686-11.685 11.686-6.449 0-11.685-5.236-11.685-11.686 0-6.449 5.236-11.685 11.685-11.685zm0 52.584c6.449 0 11.685 5.236 11.685 11.686 0 6.449-5.236 11.685-11.685 11.685-6.449 0-11.685-5.236-11.685-11.685 0-6.45 5.236-11.686 11.685-11.686z" fill="#FFC754"/><linearGradient id="b" x1=".043" y1=".339" x2=".825" y2=".921" gradientTransform="matrix(280 0 0 266.279 665 270.957)" gradientUnits="userSpaceOnUse"><stop offset="0%" stop-color="#a41f76"/><stop offset="98.696%" stop-color="#f3665b"/></linearGradient><path d="M945 381.882l-24.223-5.235 16.335-19.058c-14.241-14.101-44.817-17.801-76.231-7.609-4.607 1.466-8.935 3.211-13.124 5.096.489-4.538.768-9.145.768-13.962 0-33.019-12.984-60.942-30.785-70.157l-13.054 21.431-12.496-21.431c-17.801 9.215-30.715 37.138-30.715 70.088 0 4.747.279 9.424.768 13.961-4.189-1.885-8.587-3.63-13.124-5.096-31.414-10.192-61.99-6.492-76.231 7.609l16.335 19.058L665 381.812c3.281 19.756 25.829 40.699 57.173 50.891a127.599 127.599 0 0013.403 3.56c-3.072 3.351-6.004 6.911-8.726 10.75-19.407 26.737-25.34 56.964-16.335 74.834l23.176-9.633-2.443 24.642c19.825 3.002 46.701-11.937 66.108-38.674a112.114 112.114 0 007.679-12.007c2.234 4.049 4.817 8.028 7.679 12.007 19.406 26.667 46.283 41.676 66.108 38.674l-2.443-24.642 23.176 9.633c9.005-17.94 3.141-48.097-16.335-74.834-2.792-3.839-5.724-7.399-8.726-10.75a123.274 123.274 0 0013.403-3.56c31.274-10.123 53.822-31.065 57.103-50.821z" fill="url(#b)"/><mask id="c" x="-200%" y="-200%" width="400%" height="400%"><rect x="-200%" y="-200%" width="400%" height="400%" fill="#fff"/><path d="M735.785 436.193l111.903-81.117"/></mask><path mask="url(#c)" vector-effect="non-scaling-stroke" stroke-width="4" stroke="#FFF" stroke-miterlimit="10" d="M735.785 436.193l111.903-81.117"/><mask id="d" x="-200%" y="-200%" width="400%" height="400%"><rect x="-200%" y="-200%" width="400%" height="400%" fill="#fff"/><path d="M735.785 436.193h138.43"/></mask><path mask="url(#d)" vector-effect="non-scaling-stroke" stroke-width="4" stroke="#FFF" stroke-miterlimit="10" d="M735.785 436.193h138.43"/><mask id="e" x="-200%" y="-200%" width="400%" height="400%"><rect x="-200%" y="-200%" width="400%" height="400%" fill="#fff"/><path d="M804.965 486.036l-42.653-130.96"/></mask><path mask="url(#e)" vector-effect="non-scaling-stroke" stroke-width="4" stroke="#FFF" stroke-miterlimit="10" d="M804.965 486.036l-42.653-130.96"/><mask id="f" x="-200%" y="-200%" width="400%" height="400%"><rect x="-200%" y="-200%" width="400%" height="400%" fill="#fff"/><path d="M874.215 436.193l-111.903-81.117"/></mask><path mask="url(#f)" vector-effect="non-scaling-stroke" stroke-width="4" stroke="#FFF" stroke-miterlimit="10" d="M874.215 436.193l-111.903-81.117"/><mask id="g" x="-200%" y="-200%" width="400%" height="400%"><rect x="-200%" y="-200%" width="400%" height="400%" fill="#fff"/><path d="M847.688 355.076l-42.723 130.96"/></mask><path mask="url(#g)" vector-effect="non-scaling-stroke" stroke-width="4" stroke="#FFF" stroke-miterlimit="10" d="M847.688 355.076l-42.723 130.96"/><mask id="h" x="-200%" y="-200%" width="400%" height="400%"><rect x="-200%" y="-200%" width="400%" height="400%" fill="#fff"/><path d="M920.497 376.577l-184.712 59.616"/></mask><path mask="url(#h)" vector-effect="non-scaling-stroke" stroke-width="4" stroke="#FFF" stroke-miterlimit="10" d="M920.497 376.577l-184.712 59.616"/><mask id="i" x="-200%" y="-200%" width="400%" height="400%"><rect x="-200%" y="-200%" width="400%" height="400%" fill="#fff"/><path d="M689.503 376.577l184.712 59.616"/></mask><path mask="url(#i)" vector-effect="non-scaling-stroke" stroke-width="4" stroke="#FFF" stroke-miterlimit="10" d="M689.503 376.577l184.712 59.616"/><mask id="j" x="-200%" y="-200%" width="400%" height="400%"><rect x="-200%" y="-200%" width="400%" height="400%" fill="#fff"/><path d="M876.099 511.935L762.312 355.076"/></mask><path mask="url(#j)" vector-effect="non-scaling-stroke" stroke-width="4" stroke="#FFF" stroke-miterlimit="10" d="M876.099 511.935L762.312 355.076"/><mask id="k" x="-200%" y="-200%" width="400%" height="400%"><rect x="-200%" y="-200%" width="400%" height="400%" fill="#fff"/><path d="M733.831 511.935l113.857-156.859"/></mask><path mask="url(#k)" vector-effect="non-scaling-stroke" stroke-width="4" stroke="#FFF" stroke-miterlimit="10" d="M733.831 511.935l113.857-156.859"/><mask id="l" x="-200%" y="-200%" width="400%" height="400%"><rect x="-200%" y="-200%" width="400%" height="400%" fill="#fff"/><path d="M847.688 355.076l72.809 21.501"/></mask><path mask="url(#l)" vector-effect="non-scaling-stroke" stroke-width="4" stroke="#FFF" stroke-miterlimit="10" d="M847.688 355.076l72.809 21.501"/><mask id="m" x="-200%" y="-200%" width="400%" height="400%"><rect x="-200%" y="-200%" width="400%" height="400%" fill="#fff"/><path d="M920.497 376.577l-46.282 59.616"/></mask><path mask="url(#m)" vector-effect="non-scaling-stroke" stroke-width="4" stroke="#FFF" stroke-miterlimit="10" d="M920.497 376.577l-46.282 59.616"/><mask id="n" x="-200%" y="-200%" width="400%" height="400%"><rect x="-200%" y="-200%" width="400%" height="400%" fill="#fff"/><path d="M874.215 436.193l1.884 75.742"/></mask><path mask="url(#n)" vector-effect="non-scaling-stroke" stroke-width="4" stroke="#FFF" stroke-miterlimit="10" d="M874.215 436.193l1.884 75.742"/><mask id="o" x="-200%" y="-200%" width="400%" height="400%"><rect x="-200%" y="-200%" width="400%" height="400%" fill="#fff"/><path d="M876.099 511.935l-71.134-25.899"/></mask><path mask="url(#o)" vector-effect="non-scaling-stroke" stroke-width="4" stroke="#FFF" stroke-miterlimit="10" d="M876.099 511.935l-71.134-25.899"/><mask id="p" x="-200%" y="-200%" width="400%" height="400%"><rect x="-200%" y="-200%" width="400%" height="400%" fill="#fff"/><path d="M804.965 486.036l-71.134 25.899"/></mask><path mask="url(#p)" vector-effect="non-scaling-stroke" stroke-width="4" stroke="#FFF" stroke-miterlimit="10" d="M804.965 486.036l-71.134 25.899"/><mask id="q" x="-200%" y="-200%" width="400%" height="400%"><rect x="-200%" y="-200%" width="400%" height="400%" fill="#fff"/><path d="M733.831 511.935l1.954-75.742"/></mask><path mask="url(#q)" vector-effect="non-scaling-stroke" stroke-width="4" stroke="#FFF" stroke-miterlimit="10" d="M733.831 511.935l1.954-75.742"/><mask id="r" x="-200%" y="-200%" width="400%" height="400%"><rect x="-200%" y="-200%" width="400%" height="400%" fill="#fff"/><path d="M735.785 436.193l-46.282-59.616"/></mask><path mask="url(#r)" vector-effect="non-scaling-stroke" stroke-width="4" stroke="#FFF" stroke-miterlimit="10" d="M735.785 436.193l-46.282-59.616"/><mask id="s" x="-200%" y="-200%" width="400%" height="400%"><rect x="-200%" y="-200%" width="400%" height="400%" fill="#fff"/><path d="M689.503 376.577l72.809-21.501"/></mask><path mask="url(#s)" vector-effect="non-scaling-stroke" stroke-width="4" stroke="#FFF" stroke-miterlimit="10" d="M689.503 376.577l72.809-21.501"/><mask id="t" x="-200%" y="-200%" width="400%" height="400%"><rect x="-200%" y="-200%" width="400%" height="400%" fill="#fff"/><path d="M762.312 355.076l-26.527 81.117"/></mask><path mask="url(#t)" vector-effect="non-scaling-stroke" stroke-width="4" stroke="#FFF" stroke-miterlimit="10" d="M762.312 355.076l-26.527 81.117"/><mask id="u" x="-200%" y="-200%" width="400%" height="400%"><rect x="-200%" y="-200%" width="400%" height="400%" fill="#fff"/><path d="M735.785 436.193l69.18 49.843"/></mask><path mask="url(#u)" vector-effect="non-scaling-stroke" stroke-width="4" stroke="#FFF" stroke-miterlimit="10" d="M735.785 436.193l69.18 49.843"/><mask id="v" x="-200%" y="-200%" width="400%" height="400%"><rect x="-200%" y="-200%" width="400%" height="400%" fill="#fff"/><path d="M804.965 486.036l69.25-49.843"/></mask><path mask="url(#v)" vector-effect="non-scaling-stroke" stroke-width="4" stroke="#FFF" stroke-miterlimit="10" d="M804.965 486.036l69.25-49.843"/><mask id="w" x="-200%" y="-200%" width="400%" height="400%"><rect x="-200%" y="-200%" width="400%" height="400%" fill="#fff"/><path d="M874.215 436.193l-26.527-81.117"/></mask><path mask="url(#w)" vector-effect="non-scaling-stroke" stroke-width="4" stroke="#FFF" stroke-miterlimit="10" d="M874.215 436.193l-26.527-81.117"/><mask id="x" x="-200%" y="-200%" width="400%" height="400%"><rect x="-200%" y="-200%" width="400%" height="400%" fill="#fff"/><path d="M861.091 396.053l-22.269 65.62"/></mask><path mask="url(#x)" vector-effect="non-scaling-stroke" stroke-width="4" stroke="#FFF" stroke-miterlimit="10" d="M861.091 396.053l-22.269 65.62"/><mask id="y" x="-200%" y="-200%" width="400%" height="400%"><rect x="-200%" y="-200%" width="400%" height="400%" fill="#fff"/><path d="M838.822 461.673l-68.482-.559"/></mask><path mask="url(#y)" vector-effect="non-scaling-stroke" stroke-width="4" stroke="#FFF" stroke-miterlimit="10" d="M838.822 461.673l-68.482-.559"/><mask id="z" x="-200%" y="-200%" width="400%" height="400%"><rect x="-200%" y="-200%" width="400%" height="400%" fill="#fff"/><path d="M770.34 461.114l-21.431-65.061"/></mask><path mask="url(#z)" vector-effect="non-scaling-stroke" stroke-width="4" stroke="#FFF" stroke-miterlimit="10" d="M770.34 461.114l-21.431-65.061"/><mask id="A" x="-200%" y="-200%" width="400%" height="400%"><rect x="-200%" y="-200%" width="400%" height="400%" fill="#fff"/><path d="M748.909 396.053l55.777-40.977"/></mask><path mask="url(#A)" vector-effect="non-scaling-stroke" stroke-width="4" stroke="#FFF" stroke-miterlimit="10" d="M748.909 396.053l55.777-40.977"/><mask id="B" x="-200%" y="-200%" width="400%" height="400%"><rect x="-200%" y="-200%" width="400%" height="400%" fill="#fff"/><path d="M804.686 355.076l56.405 40.977"/></mask><path mask="url(#B)" vector-effect="non-scaling-stroke" stroke-width="4" stroke="#FFF" stroke-miterlimit="10" d="M804.686 355.076l56.405 40.977"/><mask id="C" x="-200%" y="-200%" width="400%" height="400%"><rect x="-200%" y="-200%" width="400%" height="400%" fill="#fff"/><path d="M804.686 292.668l.279 193.368"/></mask><path mask="url(#C)" vector-effect="non-scaling-stroke" stroke-width="4" stroke="#FFF" stroke-miterlimit="10" d="M804.686 292.668l.279 193.368"/><mask id="D" x="-200%" y="-200%" width="400%" height="400%"><rect x="-200%" y="-200%" width="400%" height="400%" fill="#fff"/><path d="M847.688 355.076h-85.376"/></mask><path mask="url(#D)" vector-effect="non-scaling-stroke" stroke-width="4" stroke="#FFF" stroke-miterlimit="10" d="M847.688 355.076h-85.376"/><mask id="E" x="-200%" y="-200%" width="400%" height="400%"><rect x="-200%" y="-200%" width="400%" height="400%" fill="#fff"/><path d="M762.312 355.146l42.374-62.478"/></mask><path mask="url(#E)" vector-effect="non-scaling-stroke" stroke-width="4" stroke="#FFF" stroke-miterlimit="10" d="M762.312 355.146l42.374-62.478"/><mask id="F" x="-200%" y="-200%" width="400%" height="400%"><rect x="-200%" y="-200%" width="400%" height="400%" fill="#fff"/><path d="M847.688 355.146l-43.002-62.478"/></mask><path mask="url(#F)" vector-effect="non-scaling-stroke" stroke-width="4" stroke="#FFF" stroke-miterlimit="10" d="M847.688 355.146l-43.002-62.478"/><linearGradient id="G" x1=".111" y1=".075" x2=".886" y2=".899" gradientTransform="matrix(112.67 0 0 107.155 748.351 355.006)" gradientUnits="userSpaceOnUse"><stop offset="1.304%" stop-color="#a41f76"/><stop offset="98.696%" stop-color="#f3665b"/></linearGradient><mask id="H" x="-200%" y="-200%" width="400%" height="400%"><rect x="-200%" y="-200%" width="400%" height="400%" fill="#fff"/><path d="M861.021 395.914l-56.335-40.908-56.335 40.908 21.501 66.248h69.668l21.501-66.248z"/></mask><path d="M861.021 395.914l-56.335-40.908-56.335 40.908 21.501 66.248h69.668l21.501-66.248z" fill="url(#G)" mask="url(#H)" vector-effect="non-scaling-stroke" stroke-width="4" stroke="#FFF" stroke-miterlimit="10"/><path d="M861.021 395.914l-56.335-40.908-56.335 40.908 21.501 66.248h69.668l21.501-66.248z" fill="url(#G)"/><linearGradient id="I" x1="0" y1=".5" x2="1" y2=".5" gradientTransform="matrix(138.429 0 0 131.239 735.785 355.076)" gradientUnits="userSpaceOnUse"><stop offset="1.304%" stop-color="#a41f76"/><stop offset="98.696%" stop-color="#f3665b"/></linearGradient><mask id="J" x="-200%" y="-200%" width="400%" height="400%"><rect x="-200%" y="-200%" width="400%" height="400%" fill="#fff"/><path d="M874.215 436.193l-69.25 50.122-69.18-50.122 26.458-81.117h85.514l26.458 81.117z"/></mask><path d="M874.215 436.193l-69.25 50.122-69.18-50.122 26.458-81.117h85.514l26.458 81.117z" fill="url(#I)" mask="url(#J)" vector-effect="non-scaling-stroke" stroke-width="4" stroke="#FFF" stroke-miterlimit="10"/><path d="M874.215 436.193l-69.25 50.122-69.18-50.122 26.458-81.117h85.514l26.458 81.117z" fill="url(#I)"/><mask id="K" x="-200%" y="-200%" width="400%" height="400%"><rect x="-200%" y="-200%" width="400%" height="400%" fill="#fff"/><path d="M804.616 443.662l41.047-3.63"/></mask><path mask="url(#K)" vector-effect="non-scaling-stroke" stroke-width="4.018" stroke="#FFF" stroke-miterlimit="10" d="M804.616 443.662l41.047-3.63"/><mask id="L" x="-200%" y="-200%" width="400%" height="400%"><rect x="-200%" y="-200%" width="400%" height="400%" fill="#fff"/><path d="M763.499 440.032l41.117 3.63"/></mask><path mask="url(#L)" vector-effect="non-scaling-stroke" stroke-width="4.018" stroke="#FFF" stroke-miterlimit="10" d="M763.499 440.032l41.117 3.63"/><mask id="M" x="-200%" y="-200%" width="400%" height="400%"><rect x="-200%" y="-200%" width="400%" height="400%" fill="#fff"/><path d="M845.663 440.032l-41.047 23.735-41.117-23.735v-47.469l41.117-23.665 41.047 23.665v47.469z"/></mask><path d="M845.663 440.032l-41.047 23.735-41.117-23.735v-47.469l41.117-23.665 41.047 23.665v47.469z" fill="none" mask="url(#M)" vector-effect="non-scaling-stroke" stroke-width="4" stroke="#FFF" stroke-miterlimit="10"/><path d="M845.663 440.032l-41.047 23.735-41.117-23.735v-47.469l41.117-23.665 41.047 23.665v47.469z" fill="none"/><mask id="N" x="-200%" y="-200%" width="400%" height="400%"><rect x="-200%" y="-200%" width="400%" height="400%" fill="#fff"/><path d="M845.663 392.493l-41.047-3.63"/></mask><path mask="url(#N)" vector-effect="non-scaling-stroke" stroke-width="4" stroke="#FFF" stroke-miterlimit="10" d="M845.663 392.493l-41.047-3.63"/><mask id="O" x="-200%" y="-200%" width="400%" height="400%"><rect x="-200%" y="-200%" width="400%" height="400%" fill="#fff"/><path d="M763.499 392.563l41.117-3.7"/></mask><path mask="url(#O)" vector-effect="non-scaling-stroke" stroke-width="4" stroke="#FFF" stroke-miterlimit="10" d="M763.499 392.563l41.117-3.7"/><mask id="P" x="-200%" y="-200%" width="400%" height="400%"><rect x="-200%" y="-200%" width="400%" height="400%" fill="#fff"/><path d="M845.663 392.563l-17.312 37.417"/></mask><path mask="url(#P)" vector-effect="non-scaling-stroke" stroke-width="4" stroke="#FFF" stroke-miterlimit="10" d="M845.663 392.563l-17.312 37.417"/><mask id="Q" x="-200%" y="-200%" width="400%" height="400%"><rect x="-200%" y="-200%" width="400%" height="400%" fill="#fff"/><path d="M804.616 463.767l23.735-33.787"/></mask><path mask="url(#Q)" vector-effect="non-scaling-stroke" stroke-width="4" stroke="#FFF" stroke-miterlimit="10" d="M804.616 463.767l23.735-33.787"/><mask id="R" x="-200%" y="-200%" width="400%" height="400%"><rect x="-200%" y="-200%" width="400%" height="400%" fill="#fff"/><path d="M763.499 392.563l17.382 37.417"/></mask><path mask="url(#R)" vector-effect="non-scaling-stroke" stroke-width="4" stroke="#FFF" stroke-miterlimit="10" d="M763.499 392.563l17.382 37.417"/><mask id="S" x="-200%" y="-200%" width="400%" height="400%"><rect x="-200%" y="-200%" width="400%" height="400%" fill="#fff"/><path d="M804.616 463.767l-23.735-33.787"/></mask><path mask="url(#S)" vector-effect="non-scaling-stroke" stroke-width="4" stroke="#FFF" stroke-miterlimit="10" d="M804.616 463.767l-23.735-33.787"/><mask id="T" x="-200%" y="-200%" width="400%" height="400%"><rect x="-200%" y="-200%" width="400%" height="400%" fill="#fff"/><path d="M828.351 429.98l-23.735-41.117-23.735 41.117h47.47z"/></mask><path d="M828.351 429.98l-23.735-41.117-23.735 41.117h47.47z" fill="none" mask="url(#T)" vector-effect="non-scaling-stroke" stroke-width="4" stroke="#FFF" stroke-miterlimit="10"/><path d="M828.351 429.98l-23.735-41.117-23.735 41.117h47.47z" fill="none"/><mask id="U" x="-200%" y="-200%" width="400%" height="400%"><rect x="-200%" y="-200%" width="400%" height="400%" fill="#fff"/><path d="M780.881 402.266l23.735 41.047 23.735-41.047h-47.47z"/></mask><path d="M780.881 402.266l23.735 41.047 23.735-41.047h-47.47z" fill="none" mask="url(#U)" vector-effect="non-scaling-stroke" stroke-width="4" stroke="#FFF" stroke-miterlimit="10"/><path d="M780.881 402.266l23.735 41.047 23.735-41.047h-47.47z" fill="none"/><mask id="V" x="-200%" y="-200%" width="400%" height="400%"><rect x="-200%" y="-200%" width="400%" height="400%" fill="#fff"/><path d="M763.499 392.563l17.382 9.703"/></mask><path mask="url(#V)" vector-effect="non-scaling-stroke" stroke-width="4" stroke="#FFF" stroke-miterlimit="10" d="M763.499 392.563l17.382 9.703"/><mask id="W" x="-200%" y="-200%" width="400%" height="400%"><rect x="-200%" y="-200%" width="400%" height="400%" fill="#fff"/><path d="M828.351 402.266l17.312-9.703"/></mask><path mask="url(#W)" vector-effect="non-scaling-stroke" stroke-width="4" stroke="#FFF" stroke-miterlimit="10" d="M828.351 402.266l17.312-9.703"/><mask id="X" x="-200%" y="-200%" width="400%" height="400%"><rect x="-200%" y="-200%" width="400%" height="400%" fill="#fff"/><path d="M804.616 443.313v20.454"/></mask><path mask="url(#X)" vector-effect="non-scaling-stroke" stroke-width="4" stroke="#FFF" stroke-miterlimit="10" d="M804.616 443.313v20.454"/><circle vector-effect="non-scaling-stroke" cx="804.616" cy="463.767" r="2.862" fill="#FFF" stroke-width="2" stroke="#FFF" stroke-miterlimit="10"/><circle vector-effect="non-scaling-stroke" cx="763.499" cy="392.563" r="2.862" fill="#FFF" stroke-width="2" stroke="#FFF" stroke-miterlimit="10"/><circle vector-effect="non-scaling-stroke" cx="780.881" cy="429.98" r="2.862" fill="#FFF" stroke-width="2" stroke="#FFF" stroke-miterlimit="10"/><circle vector-effect="non-scaling-stroke" cx="828.351" cy="429.98" r="2.862" fill="#FFF" stroke-width="2" stroke="#FFF" stroke-miterlimit="10"/><circle vector-effect="non-scaling-stroke" cx="804.616" cy="388.863" r="2.862" fill="#FFF" stroke-width="2" stroke="#FFF" stroke-miterlimit="10"/><circle vector-effect="non-scaling-stroke" cx="845.663" cy="392.563" r="2.862" fill="#FFF" stroke-width="2" stroke="#FFF" stroke-miterlimit="10"/><mask id="Y" x="-200%" y="-200%" width="400%" height="400%"><rect x="-200%" y="-200%" width="400%" height="400%" fill="#fff"/><path d="M845.663 440.032l-17.312-37.766"/></mask><path mask="url(#Y)" vector-effect="non-scaling-stroke" stroke-width="4" stroke="#FFF" stroke-miterlimit="10" d="M845.663 440.032l-17.312-37.766"/><mask id="Z" x="-200%" y="-200%" width="400%" height="400%"><rect x="-200%" y="-200%" width="400%" height="400%" fill="#fff"/><path d="M804.616 368.898l23.735 33.368"/></mask><path mask="url(#Z)" vector-effect="non-scaling-stroke" stroke-width="4" stroke="#FFF" stroke-miterlimit="10" d="M804.616 368.898l23.735 33.368"/><mask id="aa" x="-200%" y="-200%" width="400%" height="400%"><rect x="-200%" y="-200%" width="400%" height="400%" fill="#fff"/><path d="M763.499 440.032l17.382-37.766"/></mask><path mask="url(#aa)" vector-effect="non-scaling-stroke" stroke-width="4" stroke="#FFF" stroke-miterlimit="10" d="M763.499 440.032l17.382-37.766"/><mask id="ab" x="-200%" y="-200%" width="400%" height="400%"><rect x="-200%" y="-200%" width="400%" height="400%" fill="#fff"/><path d="M804.616 368.898l-23.735 33.368"/></mask><path mask="url(#ab)" vector-effect="non-scaling-stroke" stroke-width="4" stroke="#FFF" stroke-miterlimit="10" d="M804.616 368.898l-23.735 33.368"/><mask id="ac" x="-200%" y="-200%" width="400%" height="400%"><rect x="-200%" y="-200%" width="400%" height="400%" fill="#fff"/><path d="M804.686 355.076v13.822"/></mask><path mask="url(#ac)" vector-effect="non-scaling-stroke" stroke-width="4" stroke="#FFF" stroke-miterlimit="10" d="M804.686 355.076v13.822"/><mask id="ad" x="-200%" y="-200%" width="400%" height="400%"><rect x="-200%" y="-200%" width="400%" height="400%" fill="#fff"/><path d="M804.616 463.767l-34.276-2.653"/></mask><path mask="url(#ad)" vector-effect="non-scaling-stroke" stroke-width="4" stroke="#FFF" stroke-miterlimit="10" d="M804.616 463.767l-34.276-2.653"/><mask id="ae" x="-200%" y="-200%" width="400%" height="400%"><rect x="-200%" y="-200%" width="400%" height="400%" fill="#fff"/><path d="M838.822 461.673l-34.206 2.094"/></mask><path mask="url(#ae)" vector-effect="non-scaling-stroke" stroke-width="4" stroke="#FFF" stroke-miterlimit="10" d="M838.822 461.673l-34.206 2.094"/><mask id="af" x="-200%" y="-200%" width="400%" height="400%"><rect x="-200%" y="-200%" width="400%" height="400%" fill="#fff"/><path d="M748.909 396.053l14.59-3.49"/></mask><path mask="url(#af)" vector-effect="non-scaling-stroke" stroke-width="4" stroke="#FFF" stroke-miterlimit="10" d="M748.909 396.053l14.59-3.49"/><mask id="ag" x="-200%" y="-200%" width="400%" height="400%"><rect x="-200%" y="-200%" width="400%" height="400%" fill="#fff"/><path d="M861.091 396.053l-15.428-3.49"/></mask><path mask="url(#ag)" vector-effect="non-scaling-stroke" stroke-width="4" stroke="#FFF" stroke-miterlimit="10" d="M861.091 396.053l-15.428-3.49"/><mask id="ah" x="-200%" y="-200%" width="400%" height="400%"><rect x="-200%" y="-200%" width="400%" height="400%" fill="#fff"/><path d="M763.499 440.032l-27.714-3.839"/></mask><path mask="url(#ah)" vector-effect="non-scaling-stroke" stroke-width="4" stroke="#FFF" stroke-miterlimit="10" d="M763.499 440.032l-27.714-3.839"/><mask id="ai" x="-200%" y="-200%" width="400%" height="400%"><rect x="-200%" y="-200%" width="400%" height="400%" fill="#fff"/><path d="M845.663 440.032l28.552-3.839"/></mask><path mask="url(#ai)" vector-effect="non-scaling-stroke" stroke-width="4" stroke="#FFF" stroke-miterlimit="10" d="M845.663 440.032l28.552-3.839"/><mask id="aj" x="-200%" y="-200%" width="400%" height="400%"><rect x="-200%" y="-200%" width="400%" height="400%" fill="#fff"/><path d="M762.243 355.076l42.373 13.822"/></mask><path mask="url(#aj)" vector-effect="non-scaling-stroke" stroke-width="4" stroke="#FFF" stroke-miterlimit="10" d="M762.243 355.076l42.373 13.822"/><mask id="ak" x="-200%" y="-200%" width="400%" height="400%"><rect x="-200%" y="-200%" width="400%" height="400%" fill="#fff"/><path d="M847.757 355.076l-43.141 13.822"/></mask><path mask="url(#ak)" vector-effect="non-scaling-stroke" stroke-width="4" stroke="#FFF" stroke-miterlimit="10" d="M847.757 355.076l-43.141 13.822"/><path d="M661.58 365.268c4.56-4.56 4.56-11.965 0-16.525-4.561-4.561-11.966-4.561-16.526 0-4.56 4.56-4.56 11.965 0 16.525 4.56 4.561 11.965 4.561 16.526 0zm-37.183-37.182c4.56-4.561 4.56-11.965 0-16.526-4.56-4.56-11.965-4.56-16.526 0-4.56 4.561-4.56 11.965 0 16.526 4.561 4.56 11.966 4.56 16.526 0zm-37.183-37.183c4.561-4.56 4.561-11.965 0-16.525-4.56-4.561-11.965-4.561-16.525 0-4.561 4.56-4.561 11.965 0 16.525 4.56 4.561 11.965 4.561 16.525 0zM946.555 365.445c-4.561-4.56-4.561-11.965 0-16.525 4.56-4.561 11.965-4.561 16.525 0 4.561 4.56 4.561 11.965 0 16.525-4.56 4.561-11.965 4.561-16.525 0zm37.182-37.182c-4.56-4.561-4.56-11.965 0-16.526 4.561-4.56 11.965-4.56 16.526 0 4.56 4.561 4.56 11.965 0 16.526-4.561 4.56-11.965 4.56-16.526 0zm37.183-37.183c-4.561-4.56-4.561-11.965 0-16.525 4.56-4.561 11.965-4.561 16.525 0 4.561 4.56 4.561 11.965 0 16.525-4.56 4.561-11.965 4.561-16.525 0z" fill="#FFC754"/></g></svg>