<svg xmlns="http://www.w3.org/2000/svg" style="isolation:isolate" viewBox="572 317.929 704.344 342.409" width="939.125" height="456.545"><defs><clipPath id="a"><path d="M572 317.929h704.344v342.409H572z"/></clipPath></defs><g clip-path="url(#a)"><linearGradient id="b" x1=".02" y1=".78" x2=".975" y2=".222" gradientTransform="matrix(299.344 0 0 342.409 977 317.929)" gradientUnits="userSpaceOnUse"><stop offset="2.174%" stop-color="#d33b69"/><stop offset="100%" stop-color="#ff9650"/></linearGradient><path d="M1126.672 330.063l138.047 67.888v182.375l-138.047 67.888-138.047-67.893V397.945l138.047-67.882zm0-12.134L977 391.531v195.205l149.672 73.601 149.672-73.601V391.531l-149.672-73.602z" fill="url(#b)"/><g fill="#008BCF"><circle vector-effect="non-scaling-stroke" cx="614.135" cy="405.826" r="16.56"/><path d="M632.63 429.006h-36.979c-13.037 0-23.651 10.614-23.651 23.651v46.378a8.606 8.606 0 008.603 8.603c4.748 0 8.602-3.854 8.602-8.603v-41.6h5.162v39.217c0 .017-.006.035-.006.052v87.688a8.605 8.605 0 008.602 8.602c4.749 0 8.603-3.854 8.603-8.602v-70.541h5.161v70.547c0 4.748 3.854 8.602 8.603 8.602 4.748 0 8.602-3.854 8.602-8.602V457.441h5.162v41.6a8.604 8.604 0 008.602 8.602c4.749 0 8.603-3.853 8.603-8.602v-46.378c-.018-13.043-10.631-23.657-23.669-23.657z"/></g><linearGradient id="c" x1=".5" y1="0" x2=".5" y2="1" gradientTransform="matrix(0 -98.727 280.088 0 683.912 523.727)" gradientUnits="userSpaceOnUse"><stop offset="0%" stop-color="#f3665b"/><stop offset="98.696%" stop-color="#d33b69"/></linearGradient><path d="M769.302 509.683l-41.923-27.092h223.89c7.031 0 12.731-3.684 12.731-8.228 0-4.543-5.7-8.227-12.731-8.227h-223.89l41.923-27.092c2.486-1.606 3.729-3.711 3.729-5.817 0-2.106-1.243-4.211-3.729-5.817-4.971-3.213-13.032-3.213-18.004 0l-63.657 41.136c-4.972 3.213-4.972 8.422 0 11.635l63.657 41.137c4.971 3.213 13.032 3.213 18.004 0 4.971-3.213 4.971-8.423 0-11.635z" fill="url(#c)"/><clipPath id="d"><path fill="#FFF" d="M1065 418.022h123.012v142.222H1065z"/></clipPath><g clip-path="url(#d)"><linearGradient id="e" x1="-.009" y1=".032" x2=".599" y2=".756" gradientTransform="matrix(123.012 0 0 142.222 1065 418.022)" gradientUnits="userSpaceOnUse"><stop offset="2.174%" stop-color="#a41f76"/><stop offset="97.391%" stop-color="#f3665b"/></linearGradient><path d="M1065 560.244V418.318h21.342v141.926H1065zm32.092 0V418.318h6.772v69.586c3.426-1.332 6.852-4.086 10.278-8.32 3.426-4.205 6.3-8.706 8.545-13.444 2.283-4.737 3.504-8.231 3.622-10.541 1.064 5.063 2.756 9.09 5.001 12.14 2.284 3.05 4.843 5.211 7.678 6.514 2.875 1.303 5.75 1.955 8.663 1.955 7.088 0 11.655-2.429 13.546-7.344 1.929-4.856 2.874-10.837 2.874-17.826 0-3.198-.079-6.07-.315-8.616a31.765 31.765 0 00-1.575-7.729 17.638 17.638 0 00-4.174-6.988c-1.969-2.043-4.567-3.465-7.796-4.235-2.875-.562-5.749-.858-8.585-.858-2.559 0-4.686.355-6.418 1.036-1.693.681-2.678 1.658-2.874 2.872.394 1.066 1.417 2.34 3.071 3.82 1.693 1.481 2.835 2.606 3.465 3.317.63.74.945 1.806.945 3.168 0 2.428-1.141 4.501-3.386 6.218-2.245 1.688-5.237 2.547-9.018 2.547-3.701 0-6.693-1.007-8.938-3.02-2.244-2.014-3.465-4.412-3.662-7.136.354-3.702 2.126-6.841 5.277-9.506 3.189-2.606 7.166-4.589 11.852-5.892 4.764-1.333 9.49-2.014 14.294-2.014 5.434 0 10.671.74 15.711 2.191 5.001 1.451 9.489 3.583 13.388 6.366 3.937 2.814 7.048 6.278 9.293 10.335 2.244 4.057 3.386 8.676 3.386 13.798 0 7.108-1.732 13-5.237 17.678-3.505 4.679-7.993 8.143-13.467 10.335-5.512 2.191-11.38 3.346-17.64 3.465-6.379-.267-11.734-1.362-16.066-3.199l-8.505 10.305 8.505 10.275c5.946-1.777 11.695-2.665 17.325-2.665 7.128 0 13.31 1.54 18.665 4.59 5.355 3.02 9.45 6.988 12.207 11.844 2.795 4.856 4.213 9.861 4.213 15.043 0 5.685-1.693 10.955-5.04 15.812-3.387 4.886-8.112 8.795-14.254 11.696-6.143 2.902-13.152 4.353-21.067 4.353-9.253-.296-16.971-1.925-23.192-4.915-6.144-2.991-9.254-7.433-9.254-13.296.394-2.783 1.772-5.004 4.174-6.603 2.363-1.658 4.922-2.546 7.718-2.694 3.426 0 6.458.888 9.096 2.694 2.677 1.777 4.016 3.968 4.016 6.633 0 1.036-.315 1.984-.945 2.872-.63.859-1.575 1.895-2.835 3.05-1.3 1.155-2.166 2.014-2.639 2.577-.511.562-.866 1.243-1.062 2.102 0 1.066.905 1.954 2.716 2.694 1.812.711 4.135 1.155 6.931 1.303 8.86-.296 14.726-3.079 17.64-8.38 2.954-5.301 4.41-11.903 4.41-19.869 0-6.929-1.062-12.999-3.11-18.24-2.127-5.211-6.694-7.817-13.664-7.817-6.261 0-11.104 2.043-14.53 6.099-3.347 4.027-5.512 8.765-6.457 14.243-1.025-4.59-2.717-9.031-5.041-13.354-2.283-4.323-4.961-8.084-8.032-11.342-3.032-3.227-6.301-5.774-9.727-7.609v69.852h-6.772z" fill-rule="evenodd" fill="url(#e)"/></g><linearGradient id="f" x1="0" y1=".5" x2="1" y2=".5" gradientTransform="matrix(116 0 0 126.668 793 329.332)" gradientUnits="userSpaceOnUse"><stop offset="0%" stop-color="#f3665b"/><stop offset="99.13%" stop-color="#ffc754"/></linearGradient><path d="M908.291 408.712l-.006-.002a67.825 67.825 0 00-23.7-14.466l-24.382-8.676c-1.788-7.373-7.347-13.616-15.156-15.878a21.764 21.764 0 00-8.766-.699 42.598 42.598 0 00-.271-4.512h31.787a6.064 6.064 0 006.065-6.064v-23.02a6.064 6.064 0 00-6.065-6.063h-38.343c-7.026 0-13.044 4.151-15.856 10.112C801.97 340.173 793 352.9 793 369.067c0 8.209 2.319 15.534 6.115 20.857a24.9 24.9 0 002.916 3.393c-4.598 8.315-3.466 18.95 3.591 26.005 4.267 4.267 9.857 6.393 15.447 6.393 1.943 0 3.887-.258 5.776-.771l6.356 5.641a3.866 3.866 0 002.557.967c.635 0 1.272-.156 1.852-.476l2.701-1.486a1.072 1.072 0 011.284.179c.341.336.416.86.189 1.284l-1.161 2.155a3.846 3.846 0 005.238 5.194l2.103-1.159a1.084 1.084 0 011.476 1.463l-.061.109a5.934 5.934 0 001.286 7.264 5.939 5.939 0 006.812.761l.059-.028a1.083 1.083 0 011.473 1.462 3.195 3.195 0 00-.153 2.711 3.189 3.189 0 001.979 1.853s7.09 2.301 9.468 3.069c.865.279 1.863-.12 2.293-.55.599-.598.81-1.483.552-2.286l-.004-.006a67.786 67.786 0 00-13.789-24.1l-17.177-19.359c1.989-7.32.128-15.47-5.622-21.216a21.797 21.797 0 00-15.467-6.41c-4.859 0-9.662 1.707-13.653 4.925-.923-.976-1.751-2.145-2.501-3.443-2.218-3.837-3.624-8.893-3.624-14.396 0-10.147 4.679-18.914 10.692-20.941a17.46 17.46 0 0015.589 16.165c.231 1.548.381 3.135.381 4.776 0 .978-.136 1.942-.221 2.914a21.753 21.753 0 00-6.399 5.857c3.676.037 7.223.847 10.479 2.324a9.433 9.433 0 013.08-.205 1.403 1.403 0 011.204 1.783l-.212.729a26.214 26.214 0 013.59 2.982c6.026 6.024 8.683 14.655 7.2 22.986l1.707 1.924c2.108-1.015 4.07-2.326 5.764-3.963l8.288 1.875a3.85 3.85 0 004.101-1.694l1.649-2.603c.254-.41.749-.597 1.211-.463.461.13.779.552.786 1.033l.02 2.449a3.845 3.845 0 007.093 2.024l1.284-2.028a1.088 1.088 0 011.212-.465c.462.136.781.554.787 1.035l-.002.124a5.934 5.934 0 004.63 5.744 5.94 5.94 0 006.334-2.618l.037-.053a1.083 1.083 0 011.997.571 3.201 3.201 0 001.174 2.449 3.19 3.19 0 002.626.669l9.775-1.877a2.257 2.257 0 001.124-3.857zm-96.657-2.781a1.409 1.409 0 01-1.116.404 1.405 1.405 0 01-1.027-.597c-1.696-2.447-2.088-5.5-1.231-8.249 2.958 1.52 9.049 2.001 11.343.468l-7.969 7.974zm5.75-57.756c2.01.706 3.834 2.221 5.415 4.232a6.067 6.067 0 01-5.415-4.232zm3.648-7.528a6.088 6.088 0 012.144-.407 6.105 6.105 0 016.104 6.103c0 .219-.043.426-.065.639-2.315-2.869-5.085-5.065-8.183-6.335z" fill="url(#f)"/></g></svg>