<svg xmlns="http://www.w3.org/2000/svg" style="isolation:isolate" viewBox="674.429 139 501.143 478" width="668.191" height="478pt"><defs><clipPath id="a"><path d="M674.429 139h501.143v478H674.429z"/></clipPath></defs><g clip-path="url(#a)"><path vector-effect="non-scaling-stroke" stroke-width="6" stroke="#FFC754" d="M925 139v110m248.942 355.619l-110.534-71.512m-387.35 71.512l110.534-71.512"/><path d="M786.592 533.107V326.899L925 249.627l138.408 77.272v206.208L925 610.373l-138.408-77.266z" fill="#FFF"/><linearGradient id="b" x1=".01" y1=".783" x2=".993" y2=".219" gradientTransform="matrix(288 0 0 374 781 243)" gradientUnits="userSpaceOnUse"><stop offset="1.739%" stop-color="#9d70d2"/><stop offset="98.696%" stop-color="#6fb4ff"/></linearGradient><path d="M925 256.254l132.816 74.151v199.202L925 603.746l-132.816-74.145V330.399L925 256.254zM925 243l-144 80.392v213.216L925 617l144-80.392V323.392L925 243z" fill="url(#b)"/><ellipse vector-effect="non-scaling-stroke" cx="925" cy="369.02" rx="41.701" ry="43.577" fill="#C9C9C9"/><linearGradient id="c" x1="0" y1=".5" x2="1" y2=".5" gradientTransform="matrix(143.855 0 0 79.93 853.073 429.287)" gradientUnits="userSpaceOnUse"><stop offset="0%" stop-color="#d33b69"/><stop offset="98.696%" stop-color="#ff9650"/></linearGradient><path d="M996.927 509.2v-38.568c0-40.603-42.406-41.345-42.406-41.345h-59.042s-42.406.497-42.406 41.345V509.2h143.854z" fill="url(#c)"/></g></svg>