<svg xmlns="http://www.w3.org/2000/svg" style="isolation:isolate" viewBox="627 203 392.534 512" width="523.379" height="512pt"><defs><clipPath id="a"><path d="M627 203h392.534v512H627z"/></clipPath></defs><g clip-path="url(#a)"><linearGradient id="b" x1=".036" y1=".177" x2=".83" y2=".777" gradientTransform="matrix(375.466 0 0 494.934 635.534 211.533)" gradientUnits="userSpaceOnUse"><stop offset="2.174%" stop-color="#ffc754"/><stop offset="100%" stop-color="#ff9650"/></linearGradient><path d="M823.267 211.533S766.094 279.8 635.534 279.8v162.987c0 85.333 36.693 167.253 104.107 219.307 23.893 18.773 51.2 34.987 83.627 44.373 32.427-9.387 60.587-25.6 83.627-44.373C974.307 610.04 1011 528.12 1011 442.787V279.8c-130.56 0-187.733-68.267-187.733-68.267z" fill="url(#b)"/><path d="M823.267 715h-2.56c-30.72-9.387-59.733-24.747-87.04-46.08C667.107 616.013 627 531.533 627 442.787V279.8c0-5.12 3.413-8.533 8.533-8.533 124.587 0 180.907-64.853 180.907-64.853 1.707-2.561 4.267-3.414 6.827-3.414 2.56 0 5.12.853 6.827 3.413.853.853 56.32 64.853 180.907 64.853 5.12 0 8.533 3.413 8.533 8.533v162.987c0 88.747-40.107 173.227-106.667 226.133-27.307 21.333-56.32 36.693-87.04 46.08l-2.56.001zm-179.2-426.667v154.453c0 83.627 37.547 162.987 100.693 212.48 24.747 19.627 51.2 33.28 78.507 41.813 27.307-8.533 53.76-23.04 78.507-41.813 63.146-49.493 100.693-128.853 100.693-212.479V288.333c-104.107-2.56-161.28-46.933-179.2-64.853-17.92 17.92-75.093 62.293-179.2 64.853z" fill="#FFC754"/><linearGradient id="c" x1=".106" y1=".979" x2=".485" y2=".179" gradientTransform="matrix(85.549 0 0 205.334 780.919 356.066)" gradientUnits="userSpaceOnUse"><stop offset="0%" stop-color="#0c72ce"/><stop offset="98.696%" stop-color="#62baac"/></linearGradient><path d="M789.134 561.4c-.853 0-1.707 0-2.56-.853-4.267-1.707-6.827-6.827-5.12-11.093l68.267-187.733c1.707-4.267 6.827-6.827 11.093-5.12 4.267 1.707 6.827 6.827 5.12 11.093l-68.267 187.733c-1.707 3.413-5.12 5.973-8.533 5.973z" fill="url(#c)"/><linearGradient id="d" x1=".531" y1=".148" x2=".605" y2=".915" gradientTransform="matrix(68.267 0 0 204.799 686.734 356.601)" gradientUnits="userSpaceOnUse"><stop offset="0%" stop-color="#0c72ce"/><stop offset="98.696%" stop-color="#62baac"/></linearGradient><path d="M746.467 561.4c-18.773 0-34.133-15.36-34.133-34.133v-39.253l-23.04-23.04c-3.413-3.413-3.413-8.533 0-11.947l23.04-23.04v-39.253c0-18.773 15.36-34.133 34.133-34.133 5.12 0 8.533 3.413 8.533 8.533 0 5.12-3.413 8.533-8.533 8.533-9.387 0-17.067 7.68-17.067 17.067V433.4c0 2.56-.853 4.267-2.56 5.973L707.214 459l19.627 19.627c1.707 1.707 2.56 3.413 2.56 5.973v42.667c0 9.387 7.68 17.067 17.067 17.067 5.12 0 8.533 3.413 8.533 8.533-.001 5.12-3.414 8.533-8.534 8.533z" fill="url(#d)"/><linearGradient id="e" x1=".109" y1=".036" x2=".48" y2=".655" gradientTransform="matrix(68.266 0 0 204.8 891.533 356.6)" gradientUnits="userSpaceOnUse"><stop offset="0%" stop-color="#0c72ce"/><stop offset="98.696%" stop-color="#62baac"/></linearGradient><path d="M900.067 561.4c-5.12 0-8.533-3.413-8.533-8.533 0-5.12 3.413-8.533 8.533-8.533 9.387 0 17.067-7.68 17.067-17.067V484.6c0-2.56.853-4.267 2.56-5.973L939.32 459l-19.627-19.627c-1.707-1.707-2.56-3.413-2.56-5.973v-42.667c0-9.387-7.68-17.067-17.067-17.067-5.12 0-8.533-3.413-8.533-8.533 0-5.12 3.413-8.533 8.533-8.533 18.773 0 34.133 15.36 34.133 34.133v39.253l23.04 23.04c1.707 1.707 2.56 3.413 2.56 5.973s-.853 4.267-2.56 5.973l-23.04 23.04v39.253c.001 18.775-15.359 34.135-34.132 34.135z" fill="url(#e)"/></g></svg>