<?xml version="1.0" encoding="UTF-8" standalone="no"?><!-- Generator: Gravit.io --><svg xmlns="http://www.w3.org/2000/svg" xmlns:xlink="http://www.w3.org/1999/xlink" style="isolation:isolate" viewBox="224 71 508 508" width="508pt" height="508pt"><defs><clipPath id="_clipPath_6zqZXJDNtvHV1zOVk3tFPFujoll4V6SC"><rect x="224" y="71" width="508" height="508"/></clipPath></defs><g clip-path="url(#_clipPath_6zqZXJDNtvHV1zOVk3tFPFujoll4V6SC)"><g><circle vector-effect="non-scaling-stroke" cx="478" cy="325" r="254" fill="rgb(55,190,172)"/><path d=" M 291.2 497.1 C 337.7 547.4 404.1 579 478 579 C 551.9 579 618.3 547.4 664.8 497.1 L 291.2 497.1 Z " fill="rgb(0,170,150)"/><g><rect x="538.6" y="471.3" width="55.2" height="24.4" transform="matrix(1,0,0,1,0,0)" fill="rgb(43,59,78)"/><rect x="362.2" y="471.3" width="55.2" height="24.4" transform="matrix(1,0,0,1,0,0)" fill="rgb(43,59,78)"/></g><linearGradient id="_lgradient_4" x1="0.014781491002570785" y1="0.03084832904884327" x2="0.9820051413881745" y2="0.9820051413881749" gradientTransform="matrix(311.2,0,0,311.2,322.4,169.4)" gradientUnits="userSpaceOnUse"><stop offset="2.608695652173913%" stop-opacity="1" style="stop-color:rgb(164,31,118)"/><stop offset="97.82608695652173%" stop-opacity="1" style="stop-color:rgb(255,199,84)"/></linearGradient><path d=" M 629.4 480.6 L 326.6 480.6 C 324.3 480.6 322.4 478.7 322.4 476.4 L 322.4 173.6 C 322.4 171.3 324.3 169.4 326.6 169.4 L 629.4 169.4 C 631.7 169.4 633.6 171.3 633.6 173.6 L 633.6 476.4 C 633.6 478.7 631.7 480.6 629.4 480.6 Z " fill="url(#_lgradient_4)"/><linearGradient id="_lgradient_5" x1="0.08221575772851217" y1="0.040543853300358326" x2="1.0805949667965398" y2="1.0377972373746558" gradientTransform="matrix(256.2,0,0,268.9,343.6,190.6)" gradientUnits="userSpaceOnUse"><stop offset="1.3043478260869565%" stop-opacity="1" style="stop-color:rgb(164,31,118)"/><stop offset="98.26086956521739%" stop-opacity="1" style="stop-color:rgb(255,199,84)"/></linearGradient><rect x="343.6" y="190.6" width="256.2" height="268.9" transform="matrix(1,0,0,1,0,0)" fill="url(#_lgradient_5)"/><path d=" M 506.6 384.2 L 447.1 338.3 L 447.1 266.3 L 436.5 266.3 L 436.5 338.3 L 376.9 384.2 L 383.3 392.5 L 441.8 347.6 L 500.2 392.5 L 506.6 384.2 Z " fill="rgb(241,236,245)"/><circle vector-effect="non-scaling-stroke" cx="441.90000000000003" cy="345.20000000000005" r="18.80000000000001" fill="rgb(230,233,238)"/><circle vector-effect="non-scaling-stroke" cx="539.0999999999999" cy="311.8" r="32.60000000000002" fill="rgb(255,245,253)"/><circle vector-effect="non-scaling-stroke" cx="539.1" cy="311.79999999999995" r="21.600000000000023" fill="rgb(134,134,134)"/><circle vector-effect="non-scaling-stroke" cx="539.1" cy="311.8000000000001" r="10.399999999999977" fill="rgb(241,236,245)"/></g></g></svg>