<?xml version="1.0" encoding="UTF-8" standalone="no"?><!-- Generator: Gravit.io --><svg xmlns="http://www.w3.org/2000/svg" xmlns:xlink="http://www.w3.org/1999/xlink" style="isolation:isolate" viewBox="409.988 232.345 177.012 204.655" width="177.012pt" height="204.655pt"><defs><clipPath id="_clipPath_cZhNySIHBHvmSQQfBBB0YHBAJhgMsib4"><rect x="409.988" y="232.345" width="177.012" height="204.655"/></clipPath></defs><g clip-path="url(#_clipPath_cZhNySIHBHvmSQQfBBB0YHBAJhgMsib4)"><g><linearGradient id="_lgradient_0" x1="-0.008599952518815583" y1="0.03245017329632508" x2="0.6499733303734668" y2="0.7098354549456638" gradientTransform="matrix(177.012,0,0,204.655,409.988,232.345)" gradientUnits="userSpaceOnUse"><stop offset="2.1739130434782608%" stop-opacity="1" style="stop-color:rgb(164,31,118)"/><stop offset="97.3913043478261%" stop-opacity="1" style="stop-color:rgb(243,102,91)"/></linearGradient><path d=" M 409.988 437 L 409.988 237.16 L 409.988 232.771 L 440.699 232.771 L 440.699 432.611 L 440.699 437 L 409.988 437 Z  M 456.168 437 L 456.168 237.16 L 456.168 232.771 L 465.913 232.771 L 465.913 332.904 C 470.843 330.987 475.773 327.024 480.702 320.931 C 485.632 314.88 489.768 308.404 492.998 301.586 C 496.284 294.769 498.041 289.741 498.211 286.417 C 499.741 293.703 502.177 299.498 505.407 303.887 C 508.693 308.276 512.376 311.386 516.456 313.261 C 520.592 315.136 524.729 316.073 528.921 316.073 C 539.121 316.073 545.693 312.579 548.413 305.506 C 551.19 298.518 552.55 289.911 552.55 279.855 C 552.55 275.253 552.436 271.12 552.096 267.456 C 551.813 263.749 551.076 260.042 549.83 256.335 C 548.64 252.585 546.657 249.219 543.824 246.279 C 540.99 243.339 537.251 241.293 532.605 240.185 C 528.468 239.376 524.332 238.95 520.252 238.95 C 516.569 238.95 513.509 239.461 511.016 240.441 C 508.58 241.421 507.163 242.827 506.88 244.574 C 507.447 246.108 508.92 247.94 511.3 250.071 C 513.736 252.201 515.379 253.821 516.286 254.843 C 517.192 255.908 517.646 257.442 517.646 259.402 C 517.646 262.896 516.003 265.879 512.773 268.35 C 509.543 270.779 505.237 272.015 499.797 272.015 C 494.471 272.015 490.165 270.566 486.935 267.669 C 483.705 264.771 481.949 261.32 481.665 257.4 C 482.175 252.074 484.725 247.557 489.258 243.722 C 493.848 239.972 499.571 237.118 506.313 235.243 C 513.169 233.325 519.969 232.345 526.882 232.345 C 534.701 232.345 542.237 233.41 549.49 235.498 C 556.686 237.586 563.145 240.654 568.755 244.659 C 574.421 248.707 578.897 253.693 582.127 259.53 C 585.357 265.368 587 272.015 587 279.386 C 587 289.613 584.507 298.092 579.464 304.824 C 574.421 311.557 567.962 316.542 560.086 319.695 C 552.153 322.848 543.71 324.51 534.701 324.681 C 525.522 324.297 517.816 322.721 511.583 320.079 L 499.344 334.907 L 511.583 349.693 C 520.139 347.136 528.412 345.858 536.514 345.858 C 546.77 345.858 555.666 348.073 563.372 352.462 C 571.078 356.808 576.971 362.518 580.937 369.506 C 584.96 376.494 587 383.695 587 391.152 C 587 399.333 584.564 406.917 579.747 413.905 C 574.874 420.936 568.075 426.561 559.236 430.736 C 550.396 434.912 540.311 437 528.921 437 C 515.606 436.574 504.5 434.23 495.548 429.927 C 486.708 425.623 482.232 419.232 482.232 410.795 C 482.799 406.79 484.782 403.594 488.238 401.293 C 491.638 398.907 495.321 397.629 499.344 397.416 C 504.274 397.416 508.637 398.694 512.433 401.293 C 516.286 403.85 518.212 407.003 518.212 410.838 C 518.212 412.329 517.759 413.692 516.852 414.971 C 515.946 416.206 514.586 417.698 512.773 419.36 C 510.903 421.021 509.656 422.257 508.976 423.067 C 508.24 423.876 507.73 424.856 507.447 426.092 C 507.447 427.626 508.75 428.904 511.356 429.969 C 513.963 430.992 517.306 431.631 521.329 431.844 C 534.078 431.418 542.52 427.413 546.713 419.786 C 550.963 412.158 553.059 402.657 553.059 391.194 C 553.059 381.224 551.53 372.489 548.583 364.947 C 545.523 357.448 538.951 353.698 528.921 353.698 C 519.912 353.698 512.943 356.638 508.013 362.475 C 503.197 368.27 500.081 375.088 498.721 382.971 C 497.247 376.366 494.811 369.975 491.468 363.754 C 488.182 357.533 484.329 352.121 479.909 347.434 C 475.546 342.79 470.843 339.125 465.913 336.484 L 465.913 437 L 456.168 437 Z " fill-rule="evenodd" fill="url(#_lgradient_0)"/></g></g></svg>